<svg width="272" height="246" viewBox="0 0 272 246" fill="none" xmlns="http://www.w3.org/2000/svg">
<path fill-rule="evenodd" clip-rule="evenodd" d="M228.549 30.0462C228.549 29.2934 229.319 28.7859 230.011 29.0828L235.878 31.6004V213.084L230.067 215.993C229.37 216.342 228.549 215.835 228.549 215.056L228.549 30.0462Z" fill="url(#paint0_linear_15_2405)"/>
<path d="M29.4685 51.9781C29.4677 51.3097 29.9713 50.7484 30.6358 50.677L228.178 29.448C228.951 29.3649 229.625 29.9704 229.625 30.7475V213.86C229.625 214.636 228.951 215.242 228.179 215.159L30.8098 194.129C30.1459 194.058 29.6421 193.498 29.6413 192.831L29.4685 51.9781Z" fill="#E0EBFE" stroke="#3364ED" stroke-width="0.531195"/>
<path fill-rule="evenodd" clip-rule="evenodd" d="M39.3828 186.17L218.812 41.8333C219.195 42.1187 219.446 42.575 219.446 43.0946V202.834C219.446 203.764 218.644 204.49 217.718 204.399L40.558 186.895C40.0593 186.846 39.6341 186.567 39.3828 186.17Z" fill="url(#paint1_linear_15_2405)"/>
<path fill-rule="evenodd" clip-rule="evenodd" d="M218.986 41.9829C218.667 41.6638 218.212 41.4822 217.723 41.5292L40.4081 58.5588C39.6008 58.6364 38.9848 59.3151 38.9858 60.1261L39.1402 185.332C39.1407 185.719 39.2816 186.076 39.5167 186.351L218.986 41.9829Z" fill="url(#paint2_linear_15_2405)"/>
<path d="M39.2512 60.1259C39.2504 59.4518 39.7623 58.8877 40.4333 58.8232L217.748 41.7936C218.516 41.7199 219.18 42.3234 219.18 43.0946V202.834C219.18 203.607 218.513 204.211 217.745 204.135L40.5841 186.631C39.9159 186.565 39.4065 186.003 39.4056 185.332L39.2512 60.1259Z" stroke="#3364ED" stroke-width="0.531195"/>
<path d="M47.9398 66.0398C46.9894 66.1228 46.2604 66.9192 46.2616 67.8733L46.3969 178.971C46.3981 179.921 47.1236 180.714 48.0702 180.799L204.197 194.86C205.273 194.957 206.2 194.11 206.2 193.029V54.2265C206.2 53.1482 205.276 52.3015 204.202 52.3953L47.9398 66.0398Z" fill="url(#paint3_linear_15_2405)" stroke="#3364ED" stroke-width="0.531195"/>
<mask id="mask0_15_2405" style="mask-type:luminance" maskUnits="userSpaceOnUse" x="45" y="52" width="162" height="144">
<path d="M47.9398 66.0398C46.9894 66.1228 46.2604 66.9192 46.2616 67.8733L46.3969 178.971C46.3981 179.921 47.1236 180.714 48.0702 180.799L204.197 194.86C205.273 194.957 206.2 194.11 206.2 193.029V54.2265C206.2 53.1482 205.276 52.3015 204.202 52.3953L47.9398 66.0398Z" fill="white" stroke="white" stroke-width="0.531195"/>
</mask>
<g mask="url(#mask0_15_2405)">
<path opacity="0.401228" fill-rule="evenodd" clip-rule="evenodd" d="M158.464 60.6892L201.419 57.2561V61.2545L158.464 64.5262V60.6892ZM169.599 66.5391L201.418 64.4216V68.404L169.599 70.345V66.5391ZM191.875 72.1712L201.42 71.5878V75.8922L191.875 76.2509V72.1712Z" fill="#EEF4FE"/>
<path d="M160.502 81.4065H161.757V80.077L160.43 80.1536L160.502 81.4065ZM157.992 84.0654H159.247V82.7359L157.92 82.8125L157.992 84.0654ZM148.602 84.6072L148.53 83.3544L148.602 84.6072ZM147.277 83.4267L148.53 83.3544V83.3544L147.277 83.4267ZM148.458 82.1015L148.385 80.8487L148.458 82.1015ZM159.175 81.4831L159.247 82.7359L159.175 81.4831ZM160.502 166.995L160.43 168.248L161.757 168.325V166.995H160.502ZM159.175 166.919L159.103 168.171L159.175 166.919ZM149.3 166.349L149.228 167.602L149.3 166.349ZM148.119 165.024L149.372 165.096L148.119 165.024ZM149.444 163.843L149.372 165.096L149.444 163.843ZM157.992 164.336L157.92 165.589L159.247 165.666V164.336H157.992ZM84.8629 160.116H83.608V161.301L84.7906 161.369L84.8629 160.116ZM93.3187 160.604L93.391 159.351H93.391L93.3187 160.604ZM94.4993 161.929L93.2464 161.857L94.4993 161.929ZM93.1741 163.11L93.1018 164.363L93.1741 163.11ZM83.5357 162.554L83.4634 163.806H83.4634L83.5357 162.554ZM82.353 162.485H81.0981V163.67L82.2807 163.738L82.353 162.485ZM94.1559 87.7492L94.0836 86.4963H94.0836L94.1559 87.7492ZM95.3365 86.424L94.0836 86.4963L95.3365 86.424ZM84.8629 88.2854L84.7906 87.0326L83.608 87.1008V88.2854H84.8629ZM82.353 85.9162L82.2807 84.6633L81.0981 84.7316V85.9162H82.353ZM83.5357 85.848L83.4634 84.5951L83.5357 85.848ZM94.0113 85.2435L94.0836 86.4963L94.0113 85.2435ZM161.757 82.7359V81.4065H159.247V82.7359H161.757ZM161.757 93.3828V82.7359H159.247V93.3828H161.757ZM159.247 95.8927C160.633 95.8927 161.757 94.769 161.757 93.3828H159.247H159.247V95.8927ZM156.737 93.3828C156.737 94.769 157.861 95.8927 159.247 95.8927V93.3828H156.737ZM156.737 84.0654V93.3828H159.247V84.0654H156.737ZM148.674 85.8601L158.064 85.3183L157.92 82.8125L148.53 83.3544L148.674 85.8601ZM146.024 83.499C146.104 84.8829 147.291 85.94 148.674 85.8601L148.53 83.3544V83.3544L146.024 83.499ZM148.385 80.8487C147.001 80.9285 145.944 82.1151 146.024 83.499L148.53 83.3544V83.3544L148.385 80.8487ZM159.102 80.2302L148.385 80.8487L148.53 83.3544L159.247 82.7359L159.102 80.2302ZM160.43 80.1536L159.102 80.2302L159.247 82.7359L160.574 82.6594L160.43 80.1536ZM161.757 155.915C161.757 154.529 160.633 153.405 159.247 153.405V155.915H161.757ZM161.757 165.666V155.915H159.247V165.666H161.757ZM161.757 166.995V165.666H159.247V166.995H161.757ZM159.103 168.171L160.43 168.248L160.574 165.742L159.247 165.666L159.103 168.171ZM149.228 167.602L159.103 168.171L159.247 165.666L149.372 165.096L149.228 167.602ZM146.866 164.951C146.787 166.335 147.844 167.522 149.228 167.602L149.372 165.096L146.866 164.951ZM149.517 162.59C148.133 162.51 146.946 163.567 146.866 164.951L149.372 165.096L149.517 162.59ZM158.065 163.083L149.517 162.59L149.372 165.096L157.92 165.589L158.065 163.083ZM156.737 155.915V164.336H159.247V155.915H156.737ZM159.247 153.405C157.861 153.405 156.737 154.529 156.737 155.915H159.247V153.405ZM86.1179 150.87C86.1179 149.484 84.9942 148.36 83.608 148.36V150.87H86.1179ZM86.1179 160.116V150.87H83.608V160.116H86.1179ZM93.391 159.351L84.9352 158.863L84.7906 161.369L93.2464 161.857L93.391 159.351ZM95.7522 162.001C95.832 160.618 94.7749 159.431 93.391 159.351L93.2464 161.857H93.2464L95.7522 162.001ZM93.1018 164.363C94.4857 164.442 95.6723 163.385 95.7522 162.001L93.2464 161.857L93.1018 164.363ZM83.4634 163.806L93.1018 164.363L93.2464 161.857L83.608 161.301L83.4634 163.806ZM82.2807 163.738L83.4634 163.806L83.608 161.301L82.4253 161.232L82.2807 163.738ZM81.0981 161.301V162.485H83.608V161.301H81.0981ZM81.0981 150.87V161.301H83.608V150.87H81.0981ZM83.608 148.36C82.2218 148.36 81.0981 149.484 81.0981 150.87H83.608V148.36ZM94.2282 89.0021C95.6121 88.9222 96.6692 87.7356 96.5894 86.3517L94.0836 86.4963H94.0836L94.2282 89.0021ZM84.9352 89.5383L94.2282 89.0021L94.0836 86.4963L84.7906 87.0326L84.9352 89.5383ZM86.1179 97.4449V88.2854H83.608V97.4449H86.1179ZM83.608 99.9548C84.9942 99.9548 86.1179 98.831 86.1179 97.4449H83.608V99.9548ZM81.0981 97.4449C81.0981 98.831 82.2218 99.9548 83.608 99.9548V97.4449H81.0981ZM81.0981 87.1008V97.4449H83.608V87.1008H81.0981ZM81.0981 85.9162V87.1008H83.608V85.9162H81.0981ZM83.4634 84.5951L82.2807 84.6633L82.4253 87.1691L83.608 87.1008L83.4634 84.5951ZM93.939 83.9906L83.4634 84.5951L83.608 87.1008L94.0836 86.4963L93.939 83.9906ZM96.5894 86.3517C96.5095 84.9679 95.3229 83.9107 93.939 83.9906L94.0836 86.4963H94.0836L96.5894 86.3517Z" fill="white"/>
<path d="M121.545 156.793L93.0146 140.322L93.0146 107.381L93.0547 107.358L121.545 123.805V156.793Z" fill="url(#paint4_linear_15_2405)"/>
<path d="M121.545 156.781V123.598L150.075 107.361V140.323L121.545 156.781Z" fill="url(#paint5_linear_15_2405)"/>
<path d="M150.065 107.375L121.546 123.838L93.0269 107.374L121.545 90.9103L150.065 107.375Z" fill="url(#paint6_linear_15_2405)"/>
<path opacity="0.832667" fill-rule="evenodd" clip-rule="evenodd" d="M85.0898 88.2318V126.3L158.037 128.29V84.1903L85.0898 88.2318Z" fill="url(#paint7_linear_15_2405)"/>
<path fill-rule="evenodd" clip-rule="evenodd" d="M85.2672 125.129L157.588 126.504C158.138 126.514 158.583 126.968 158.583 127.518C158.583 128.067 158.138 128.504 157.588 128.494L85.2672 127.119C84.7176 127.108 84.272 126.654 84.272 126.105C84.272 125.555 84.7176 125.118 85.2672 125.129Z" fill="#2DFFB8"/>
</g>
<path d="M43.2558 73.9785V132.617" stroke="white" stroke-width="1.19519" stroke-dasharray="2.39 2.39 2.39 2.39"/>
<path fill-rule="evenodd" clip-rule="evenodd" d="M43.3219 110.209C47.9398 110.209 51.6833 106.265 51.6833 101.4C51.6833 96.5355 47.9398 92.5918 43.3219 92.5918C38.704 92.5918 34.9604 96.5355 34.9604 101.4C34.9604 106.265 38.704 110.209 43.3219 110.209Z" fill="#2E344D" stroke="url(#paint8_linear_15_2405)" stroke-width="1.19519"/>
<path d="M38.8032 101.026L41.4873 104.128L47.1775 98.4451" stroke="white" stroke-width="1.19519"/>
<path d="M12.0869 88.58V207.479L186.188 229.3" stroke="#5885F2" stroke-width="0.663994" stroke-dasharray="2.39"/>
<path d="M81.833 26.8686L253.658 4.47778V123.073" stroke="#5885F2" stroke-width="0.663994" stroke-dasharray="2.39"/>
<path d="M11.9707 91.3605C13.5083 91.3605 14.7548 90.113 14.7548 88.574C14.7548 87.0351 13.5083 85.7876 11.9707 85.7876C10.433 85.7876 9.18652 87.0351 9.18652 88.574C9.18652 90.113 10.433 91.3605 11.9707 91.3605Z" fill="white" stroke="#5885F2" stroke-width="1.59359"/>
<path d="M186.368 232.142C187.905 232.142 189.152 230.895 189.152 229.356C189.152 227.817 187.905 226.569 186.368 226.569C184.83 226.569 183.583 227.817 183.583 229.356C183.583 230.895 184.83 232.142 186.368 232.142Z" fill="white" stroke="#5885F2" stroke-width="1.59359"/>
<path d="M11.9707 208.922C13.5083 208.922 14.7548 207.674 14.7548 206.135C14.7548 204.596 13.5083 203.349 11.9707 203.349C10.433 203.349 9.18652 204.596 9.18652 206.135C9.18652 207.674 10.433 208.922 11.9707 208.922Z" fill="white" stroke="#5885F2" stroke-width="1.59359"/>
<path d="M253.787 6.57289C255.325 6.57289 256.571 5.32535 256.571 3.78644C256.571 2.24753 255.325 1 253.787 1C252.249 1 251.003 2.24753 251.003 3.78644C251.003 5.32535 252.249 6.57289 253.787 6.57289Z" fill="white" stroke="#5885F2" stroke-width="1.59359"/>
<path d="M81.5825 29.7931C83.1201 29.7931 84.3666 28.5456 84.3666 27.0067C84.3666 25.4677 83.1201 24.2202 81.5825 24.2202C80.0448 24.2202 78.7983 25.4677 78.7983 27.0067C78.7983 28.5456 80.0448 29.7931 81.5825 29.7931Z" fill="white" stroke="#5885F2" stroke-width="1.59359"/>
<path d="M253.787 125.859C255.325 125.859 256.571 124.612 256.571 123.073C256.571 121.534 255.325 120.286 253.787 120.286C252.249 120.286 251.003 121.534 251.003 123.073C251.003 124.612 252.249 125.859 253.787 125.859Z" fill="white" stroke="#5885F2" stroke-width="1.59359"/>
<path d="M253.913 135.298C253.785 135.298 253.681 135.402 253.681 135.531V245.03C253.681 245.101 253.713 245.167 253.768 245.212C253.823 245.256 253.895 245.272 253.964 245.257L257.281 244.512C257.388 244.488 257.463 244.394 257.463 244.285V135.531C257.463 135.402 257.359 135.298 257.231 135.298H253.913Z" fill="url(#paint9_linear_15_2405)" stroke="#3364ED" stroke-width="0.464796" stroke-linecap="round" stroke-linejoin="round"/>
<path d="M198.844 134.811L198.61 134.809V135.043V235.045V235.239L198.801 235.273L253.319 245.138C253.602 245.189 253.864 244.971 253.864 244.683V135.548C253.864 135.395 253.74 135.271 253.587 135.27L198.844 134.811Z" fill="url(#paint10_linear_15_2405)" stroke="#3364ED" stroke-width="0.464796"/>
<mask id="mask1_15_2405" style="mask-type:luminance" maskUnits="userSpaceOnUse" x="198" y="134" width="57" height="112">
<path d="M198.844 134.811L198.61 134.809V135.043V235.045V235.239L198.801 235.273L253.319 245.138C253.602 245.189 253.864 244.971 253.864 244.683V135.548C253.864 135.395 253.74 135.271 253.587 135.27L198.844 134.811Z" fill="white" stroke="white" stroke-width="0.464796"/>
</mask>
<g mask="url(#mask1_15_2405)">
<path fill-rule="evenodd" clip-rule="evenodd" d="M198.843 123.879L193.767 143.075L319.643 146.644V109.321L198.843 123.879Z" fill="url(#paint11_linear_15_2405)"/>
</g>
<g filter="url(#filter0_d_15_2405)">
<path fill-rule="evenodd" clip-rule="evenodd" d="M202.521 150.781C202.521 150.52 202.739 150.311 202.999 150.321L249.606 152.124C249.853 152.133 250.048 152.336 250.048 152.583V170.12C250.048 170.39 249.818 170.602 249.549 170.579L202.943 166.609C202.704 166.588 202.521 166.389 202.521 166.15V150.781Z" fill="white"/>
</g>
<mask id="mask2_15_2405" style="mask-type:luminance" maskUnits="userSpaceOnUse" x="202" y="150" width="49" height="21">
<path fill-rule="evenodd" clip-rule="evenodd" d="M202.521 150.781C202.521 150.52 202.739 150.311 202.999 150.321L249.606 152.124C249.853 152.133 250.048 152.336 250.048 152.583V170.12C250.048 170.39 249.818 170.602 249.549 170.579L202.943 166.609C202.704 166.588 202.521 166.389 202.521 166.15V150.781Z" fill="white"/>
</mask>
<g mask="url(#mask2_15_2405)">
<path fill-rule="evenodd" clip-rule="evenodd" d="M215.397 156.197L246.495 157.576V164.469L215.397 162.171V156.197Z" fill="#D2E3FF"/>
<path fill-rule="evenodd" clip-rule="evenodd" d="M205.28 158.543C205.28 156.287 206.927 154.458 208.959 154.458C210.99 154.458 212.637 156.287 212.637 158.543C212.637 160.799 210.99 162.628 208.959 162.628C206.927 162.628 205.28 160.799 205.28 158.543ZM208.691 160.125L211.07 157.483C211.2 157.338 211.2 157.104 211.07 156.96C210.94 156.815 210.729 156.815 210.599 156.96L208.455 159.34L207.321 158.081C207.191 157.936 206.98 157.936 206.85 158.081C206.72 158.225 206.72 158.459 206.85 158.603L208.22 160.125L208.22 160.125C208.24 160.147 208.262 160.166 208.286 160.182C208.414 160.265 208.581 160.246 208.691 160.125L208.691 160.125Z" fill="#6896FF"/>
</g>
<g filter="url(#filter1_d_15_2405)">
<path fill-rule="evenodd" clip-rule="evenodd" d="M202.521 170.831C202.521 170.562 202.751 170.351 203.019 170.372L249.626 174.165C249.864 174.185 250.048 174.384 250.048 174.624V192.167C250.048 192.441 249.811 192.654 249.538 192.624L202.932 187.525C202.698 187.499 202.521 187.302 202.521 187.067V170.831Z" fill="#C2D5F5"/>
</g>
<mask id="mask3_15_2405" style="mask-type:luminance" maskUnits="userSpaceOnUse" x="202" y="170" width="49" height="23">
<path fill-rule="evenodd" clip-rule="evenodd" d="M202.521 170.831C202.521 170.562 202.751 170.351 203.019 170.372L249.626 174.165C249.864 174.185 250.048 174.384 250.048 174.624V192.167C250.048 192.441 249.811 192.654 249.538 192.624L202.932 187.525C202.698 187.499 202.521 187.302 202.521 187.067V170.831Z" fill="white"/>
</mask>
<g mask="url(#mask3_15_2405)">
<path fill-rule="evenodd" clip-rule="evenodd" d="M205.28 178.763C205.28 176.507 206.927 174.678 208.959 174.678C210.99 174.678 212.637 176.507 212.637 178.763C212.637 181.019 210.99 182.848 208.959 182.848C206.927 182.848 205.28 181.019 205.28 178.763ZM208.691 180.345L211.07 177.703C211.2 177.559 211.2 177.324 211.07 177.18C210.94 177.036 210.729 177.036 210.599 177.18L208.455 179.561L207.321 178.301C207.191 178.157 206.98 178.157 206.85 178.301C206.72 178.445 206.72 178.679 206.85 178.824L208.22 180.345L208.22 180.345C208.24 180.367 208.262 180.387 208.286 180.402C208.414 180.486 208.581 180.467 208.691 180.345L208.691 180.345Z" fill="#6896FF"/>
</g>
<g filter="url(#filter2_d_15_2405)">
<path fill-rule="evenodd" clip-rule="evenodd" d="M183.942 170.831C183.942 170.562 184.172 170.351 184.44 170.372L231.046 174.165C231.285 174.185 231.469 174.384 231.469 174.624V192.167C231.469 192.441 231.231 192.654 230.959 192.624L184.352 187.525C184.119 187.499 183.942 187.302 183.942 187.067V170.831Z" fill="white"/>
</g>
<mask id="mask4_15_2405" style="mask-type:luminance" maskUnits="userSpaceOnUse" x="183" y="170" width="49" height="23">
<path fill-rule="evenodd" clip-rule="evenodd" d="M183.942 170.831C183.942 170.562 184.172 170.351 184.44 170.372L231.046 174.165C231.285 174.185 231.469 174.384 231.469 174.624V192.167C231.469 192.441 231.231 192.654 230.959 192.624L184.352 187.525C184.119 187.499 183.942 187.302 183.942 187.067V170.831Z" fill="white"/>
</mask>
<g mask="url(#mask4_15_2405)">
<path fill-rule="evenodd" clip-rule="evenodd" d="M196.818 176.877L227.916 179.634V186.528L196.818 182.851V176.877Z" fill="url(#paint12_linear_15_2405)"/>
<path fill-rule="evenodd" clip-rule="evenodd" d="M186.704 178.763C186.704 176.507 188.351 174.678 190.382 174.678C192.414 174.678 194.061 176.507 194.061 178.763C194.061 181.019 192.414 182.848 190.382 182.848C188.351 182.848 186.704 181.019 186.704 178.763ZM190.112 180.345L192.491 177.703C192.621 177.559 192.621 177.324 192.491 177.18C192.361 177.036 192.15 177.036 192.02 177.18L189.876 179.561L188.742 178.301C188.612 178.157 188.401 178.157 188.271 178.301C188.141 178.445 188.141 178.679 188.271 178.824L189.641 180.345L189.641 180.345C189.661 180.367 189.683 180.387 189.707 180.402C189.835 180.486 190.002 180.467 190.112 180.345L190.112 180.345Z" fill="url(#paint13_linear_15_2405)"/>
</g>
<g filter="url(#filter3_d_15_2405)">
<path fill-rule="evenodd" clip-rule="evenodd" d="M202.597 191.399C202.597 191.123 202.837 190.91 203.111 190.942L249.717 196.376C249.949 196.403 250.124 196.599 250.124 196.833V214.377C250.124 214.655 249.878 214.87 249.602 214.832L202.995 208.502C202.767 208.471 202.597 208.277 202.597 208.046V191.399Z" fill="white"/>
</g>
<mask id="mask5_15_2405" style="mask-type:luminance" maskUnits="userSpaceOnUse" x="202" y="190" width="49" height="25">
<path fill-rule="evenodd" clip-rule="evenodd" d="M202.597 191.399C202.597 191.123 202.837 190.91 203.111 190.942L249.717 196.376C249.949 196.403 250.124 196.599 250.124 196.833V214.377C250.124 214.655 249.878 214.87 249.602 214.832L202.995 208.502C202.767 208.471 202.597 208.277 202.597 208.046V191.399Z" fill="white"/>
</mask>
<g mask="url(#mask5_15_2405)">
<path fill-rule="evenodd" clip-rule="evenodd" d="M215.473 197.845L246.57 201.439V208.333L215.473 203.819V197.845Z" fill="#D2E3FF"/>
<path fill-rule="evenodd" clip-rule="evenodd" d="M205.356 200.149C205.356 197.893 207.003 196.064 209.035 196.064C211.066 196.064 212.713 197.893 212.713 200.149C212.713 202.405 211.066 204.234 209.035 204.234C207.003 204.234 205.356 202.405 205.356 200.149ZM208.766 201.732L211.146 199.09C211.276 198.945 211.276 198.711 211.146 198.567C211.016 198.422 210.805 198.422 210.675 198.567L208.531 200.947L207.396 199.688C207.266 199.543 207.056 199.543 206.926 199.688C206.796 199.832 206.796 200.066 206.926 200.211L208.295 201.732L208.295 201.732C208.316 201.754 208.338 201.773 208.362 201.789C208.489 201.873 208.657 201.853 208.766 201.732L208.766 201.732Z" fill="#6896FF"/>
</g>
<g filter="url(#filter4_d_15_2405)">
<path fill-rule="evenodd" clip-rule="evenodd" d="M202.597 211.914C202.597 211.634 202.845 211.419 203.122 211.458L249.729 218.123C249.956 218.156 250.124 218.35 250.124 218.579V236.119C250.124 236.403 249.87 236.619 249.59 236.573L202.984 229.012C202.761 228.976 202.597 228.784 202.597 228.558L202.597 211.914Z" fill="white"/>
</g>
<mask id="mask6_15_2405" style="mask-type:luminance" maskUnits="userSpaceOnUse" x="202" y="211" width="49" height="26">
<path fill-rule="evenodd" clip-rule="evenodd" d="M202.597 211.914C202.597 211.634 202.845 211.419 203.122 211.458L249.729 218.123C249.956 218.156 250.124 218.35 250.124 218.579V236.119C250.124 236.403 249.87 236.619 249.59 236.573L202.984 229.012C202.761 228.976 202.597 228.784 202.597 228.558L202.597 211.914Z" fill="white"/>
</mask>
<g mask="url(#mask6_15_2405)">
<path fill-rule="evenodd" clip-rule="evenodd" d="M215.473 218.765L246.57 223.614V230.508L215.473 225.576V218.765Z" fill="#ECF3FF"/>
<path d="M209.035 216.984C207.003 216.984 205.356 218.813 205.356 221.069C205.356 223.325 207.003 225.154 209.035 225.154C211.066 225.154 212.713 223.325 212.713 221.069C212.713 218.813 211.066 216.984 209.035 216.984Z" fill="#ECF3FF"/>
<path d="M207.473 220.736L210.479 221.31" stroke="white" stroke-width="0.836633" stroke-linecap="round"/>
</g>
<path fill-rule="evenodd" clip-rule="evenodd" d="M238.653 98.5791L269.174 95.957C269.907 95.91 270.501 96.4659 270.501 97.1987V128.38C270.501 129.113 269.907 129.669 269.174 129.622H238.653C237.92 129.575 237.326 129.019 237.326 128.38V99.8208C237.326 99.1821 237.92 98.6261 238.653 98.5791Z" fill="#2E344D" stroke="url(#paint14_linear_15_2405)" stroke-width="1.19519"/>
<path fill-rule="evenodd" clip-rule="evenodd" d="M246.193 120.228V108.441L248.746 108.205V120.151L246.193 120.228ZM252.604 120.035V107.848L256.796 107.461C259.626 107.199 261.799 107.981 261.799 110.998C261.799 113.912 259.608 115.337 256.865 115.481L255.158 115.57V119.958L252.604 120.035ZM255.158 113.618L256.694 113.523C258.453 113.414 259.298 112.629 259.298 111.181C259.298 109.716 258.367 109.299 256.607 109.445L255.158 109.564V113.618Z" fill="#FEFEFF"/>
<path d="M65.5643 123.308C65.5155 123.298 65.465 123.311 65.4265 123.342C65.388 123.374 65.3657 123.421 65.3657 123.471V174.091C65.3657 174.14 65.387 174.186 65.424 174.217C65.461 174.249 65.51 174.263 65.558 174.255L68.8754 173.724C68.956 173.711 69.0152 173.642 69.0152 173.56V124.134C69.0152 124.055 68.9594 123.987 68.8818 123.971L65.5643 123.308Z" fill="url(#paint15_linear_15_2405)" stroke="#3364ED" stroke-width="0.331997" stroke-linecap="round" stroke-linejoin="round"/>
<path d="M0.508188 123.937C0.417129 123.938 0.343767 124.012 0.343767 124.103V169.456C0.343767 169.544 0.41108 169.616 0.497955 169.622L65.3323 174.247L65.3357 174.247C65.621 174.261 65.8499 174.044 65.8499 173.758V173.758L65.8195 136.052L65.8119 126.626L65.81 124.27L65.8095 123.68L65.8094 123.533L65.8094 123.496L65.8094 123.487V123.485V123.484C65.8094 123.484 65.8094 123.484 65.6435 123.484L65.8094 123.484C65.8093 123.44 65.7916 123.397 65.7602 123.366C65.7287 123.335 65.6861 123.318 65.6418 123.318L0.508188 123.937Z" fill="white" stroke="#3364ED" stroke-width="0.331997" stroke-linecap="round" stroke-linejoin="round"/>
<mask id="mask7_15_2405" style="mask-type:luminance" maskUnits="userSpaceOnUse" x="0" y="123" width="67" height="52">
<path d="M0.508188 123.937C0.417129 123.938 0.343767 124.012 0.343767 124.103V169.456C0.343767 169.544 0.41108 169.616 0.497955 169.622L65.3323 174.247L65.3357 174.247C65.621 174.261 65.8499 174.044 65.8499 173.758V173.758L65.8195 136.052L65.8119 126.626L65.81 124.27L65.8095 123.68L65.8094 123.533L65.8094 123.496L65.8094 123.487V123.485V123.484C65.8094 123.484 65.8094 123.484 65.6435 123.484L65.8094 123.484C65.8093 123.44 65.7916 123.397 65.7602 123.366C65.7287 123.335 65.6861 123.318 65.6418 123.318L0.508188 123.937Z" fill="white" stroke="white" stroke-width="0.331997" stroke-linecap="round" stroke-linejoin="round"/>
</mask>
<g mask="url(#mask7_15_2405)">
<path fill-rule="evenodd" clip-rule="evenodd" d="M6.86971 160.337L58.588 162.745C59.8697 162.805 60.8906 163.893 60.8682 165.175C60.8458 166.457 59.7887 167.448 58.507 167.389L6.78866 164.981C5.50697 164.921 4.48611 163.833 4.50849 162.551C4.53087 161.269 5.58802 160.278 6.86971 160.337Z" fill="#CDDAF5"/>
<path fill-rule="evenodd" clip-rule="evenodd" d="M6.86727 160.43C6.86727 160.43 33.9713 161.692 47.5233 162.323C51.2107 162.495 51.0475 167.134 47.3189 166.961C33.808 166.331 6.78622 165.073 6.78622 165.073C5.50453 165.014 4.48366 163.926 4.50605 162.644C4.52843 161.361 5.58558 160.37 6.86727 160.43Z" fill="url(#paint16_linear_15_2405)"/>
<path fill-rule="evenodd" clip-rule="evenodd" d="M48.6196 167.216C50.085 167.163 51.247 165.933 51.215 164.468C51.1831 163.003 49.9692 161.859 48.5038 161.912C47.0384 161.966 45.8764 163.196 45.9084 164.661C45.9403 166.125 47.1542 167.27 48.6196 167.216Z" fill="white" stroke="url(#paint17_linear_15_2405)" stroke-width="1.32799"/>
<path fill-rule="evenodd" clip-rule="evenodd" d="M-2.09033 114.083L69.5669 118.863V158.308L-2.09033 155.485V114.083Z" fill="url(#paint18_linear_15_2405)"/>
<mask id="mask8_15_2405" style="mask-type:luminance" maskUnits="userSpaceOnUse" x="-3" y="114" width="73" height="45">
<path fill-rule="evenodd" clip-rule="evenodd" d="M-2.09033 114.083L69.5669 118.863V158.308L-2.09033 155.485V114.083Z" fill="white"/>
</mask>
<g mask="url(#mask8_15_2405)">
<path opacity="0.6" d="M21.9875 125.751V155.806" stroke="white" stroke-width="0.486515" stroke-dasharray="1.3"/>
<rect opacity="0.304911" x="8.28076" y="111.874" width="8.4608" height="48.9601" fill="white"/>
<rect opacity="0.304911" x="26.8306" y="111.874" width="9.11163" height="48.9601" fill="white"/>
<rect opacity="0.304911" x="46.3545" y="111.874" width="9.76246" height="48.9601" fill="white"/>
</g>
<path d="M-1.0918 146.566L13.034 148.937L22.1002 134.626L32.756 145.204L41.9333 138.575L53.1834 145.204L66.3122 140.56" stroke="white" stroke-width="1.29737"/>
<path d="M16.3032 143.749L22.0989 134.626L28.5896 141.07" stroke="url(#paint19_linear_15_2405)" stroke-width="1.29737" stroke-linecap="round"/>
<path fill-rule="evenodd" clip-rule="evenodd" d="M22.079 137.362C23.5444 137.308 24.7065 136.078 24.6745 134.613C24.6425 133.149 23.4287 132.005 21.9633 132.058C20.4979 132.111 19.3359 133.341 19.3678 134.806C19.3998 136.271 20.6136 137.415 22.079 137.362Z" fill="url(#paint20_linear_15_2405)" stroke="white" stroke-width="1.32799"/>
<path fill-rule="evenodd" clip-rule="evenodd" d="M41.9838 141.342C43.4492 141.289 44.6112 140.059 44.5793 138.594C44.5473 137.129 43.3335 135.985 41.8681 136.038C40.4027 136.092 39.2407 137.322 39.2726 138.787C39.3046 140.251 40.5184 141.396 41.9838 141.342Z" fill="white"/>
<path fill-rule="evenodd" clip-rule="evenodd" d="M12.7895 151.294C14.2549 151.241 15.4169 150.011 15.3849 148.546C15.353 147.081 14.1391 145.937 12.6737 145.99C11.2083 146.043 10.0463 147.274 10.0783 148.738C10.1102 150.203 11.3241 151.347 12.7895 151.294Z" fill="white"/>
</g>
<path d="M0.489533 79.0564C0.413205 79.0612 0.35005 79.1176 0.336592 79.1928C0.323134 79.2681 0.362855 79.3429 0.432786 79.3738L3.02861 80.5233C3.05196 80.5337 3.07739 80.5385 3.10292 80.5374L68.8051 77.7265C68.894 77.7227 68.964 77.6495 68.964 77.5606V74.9069C68.964 74.861 68.9451 74.8172 68.9116 74.7858C68.8782 74.7545 68.8333 74.7383 68.7876 74.7412L0.489533 79.0564Z" fill="url(#paint21_linear_15_2405)" stroke="#3364ED" stroke-width="0.331997" stroke-linecap="round" stroke-linejoin="round"/>
<path d="M65.5846 24.7855C65.534 24.7685 65.4782 24.7769 65.4349 24.8081C65.3915 24.8393 65.3657 24.8894 65.3657 24.9429V75.9727C65.3657 76.0418 65.4086 76.1037 65.4732 76.128L68.7907 77.3772C68.8417 77.3964 68.8989 77.3894 68.9437 77.3584C68.9885 77.3274 69.0152 77.2763 69.0152 77.2219V26.0583C69.0152 25.987 68.9697 25.9237 68.9021 25.901L65.5846 24.7855Z" fill="url(#paint22_linear_15_2405)" stroke="#3364ED" stroke-width="0.331997" stroke-linecap="round" stroke-linejoin="round"/>
<path d="M0.492187 31.7197C0.40779 31.7287 0.343767 31.7999 0.343767 31.8847V79.2284C0.343767 79.2738 0.362327 79.3172 0.395132 79.3485C0.427937 79.3798 0.47213 79.3964 0.517438 79.3943L65.3467 76.3946C65.3477 76.3945 65.3486 76.3945 65.3495 76.3945C65.6295 76.3887 65.8499 76.1633 65.8499 75.8831V75.8829C65.8364 59.1259 65.8263 46.3922 65.8195 37.8478L65.8119 28.1939L65.81 25.7622L65.8095 25.1521L65.8094 24.9992L65.8094 24.961L65.8094 24.9514V24.949V24.9484C65.8094 24.9483 65.8094 24.9482 65.6434 24.9484L65.8094 24.9482C65.8093 24.9012 65.7893 24.8563 65.7543 24.8249C65.7193 24.7934 65.6726 24.7783 65.6258 24.7833L0.492187 31.7197Z" fill="white" stroke="#3364ED" stroke-width="0.331997" stroke-linecap="round" stroke-linejoin="round"/>
<mask id="mask9_15_2405" style="mask-type:luminance" maskUnits="userSpaceOnUse" x="0" y="24" width="67" height="56">
<path d="M0.492187 31.7197C0.40779 31.7287 0.343767 31.7999 0.343767 31.8847V79.2284C0.343767 79.2738 0.362327 79.3172 0.395132 79.3485C0.427937 79.3798 0.47213 79.3964 0.517438 79.3943L65.3467 76.3946C65.3477 76.3945 65.3486 76.3945 65.3495 76.3945C65.6295 76.3887 65.8499 76.1633 65.8499 75.8831V75.8829C65.8364 59.1259 65.8263 46.3922 65.8195 37.8478L65.8119 28.1939L65.81 25.7622L65.8095 25.1521L65.8094 24.9992L65.8094 24.961L65.8094 24.9514V24.949V24.9484C65.8094 24.9483 65.8094 24.9482 65.6434 24.9484L65.8094 24.9482C65.8093 24.9012 65.7893 24.8563 65.7543 24.8249C65.7193 24.7934 65.6726 24.7783 65.6258 24.7833L0.492187 31.7197Z" fill="white" stroke="white" stroke-width="0.331997" stroke-linecap="round" stroke-linejoin="round"/>
</mask>
<g mask="url(#mask9_15_2405)">
<path fill-rule="evenodd" clip-rule="evenodd" d="M-44.229 10.2501L-36.676 42.5354L76.5712 31.1598V-4.30762L-44.229 10.2501Z" fill="url(#paint23_linear_15_2405)"/>
<path fill-rule="evenodd" clip-rule="evenodd" d="M31.0298 39.6484L59.6054 36.2948V40.417L31.0298 43.4761V39.6484Z" fill="#CDDAF5"/>
<path fill-rule="evenodd" clip-rule="evenodd" d="M31.0298 53.0376L39.716 52.2115V55.919L31.0298 56.7451V53.0376Z" fill="#CDDAF5"/>
<path fill-rule="evenodd" clip-rule="evenodd" d="M31.0298 46.3647L50.98 44.3508V48.0966L31.0298 50.1105V46.3647Z" fill="#CDDAF5"/>
<path fill-rule="evenodd" clip-rule="evenodd" d="M31.0298 59.4983L53.6339 57.5906V61.5949L31.0298 63.3794V59.4983Z" fill="#CDDAF5"/>
<path fill-rule="evenodd" clip-rule="evenodd" d="M3.91707 41.9231L26.9469 39.5654C27.1768 39.5419 27.3802 39.709 27.4012 39.9386C27.4023 39.9513 27.4012 74.1062 27.4012 74.1062C27.4012 74.3277 27.2284 74.5126 27.0072 74.5278L3.97916 75.6807C3.74868 75.6965 3.55108 75.5227 3.5378 75.2924C3.53734 75.2844 3.53711 42.3435 3.53711 42.3435C3.53711 42.1274 3.70185 41.9451 3.91707 41.9231Z" fill="#CDDAF5"/>
<mask id="mask10_15_2405" style="mask-type:luminance" maskUnits="userSpaceOnUse" x="3" y="39" width="25" height="37">
<path fill-rule="evenodd" clip-rule="evenodd" d="M3.91707 41.9231L26.9469 39.5654C27.1768 39.5419 27.3802 39.709 27.4012 39.9386C27.4023 39.9513 27.4012 74.1062 27.4012 74.1062C27.4012 74.3277 27.2284 74.5126 27.0072 74.5278L3.97916 75.6807C3.74868 75.6965 3.55108 75.5227 3.5378 75.2924C3.53734 75.2844 3.53711 42.3435 3.53711 42.3435C3.53711 42.1274 3.70185 41.9451 3.91707 41.9231Z" fill="white"/>
</mask>
<g mask="url(#mask10_15_2405)">
<path d="M20.5059 64.6261C20.5059 64.665 20.5038 64.7015 20.5038 64.743C20.4975 65.2648 20.4492 65.9095 20.3842 66.5731C20.1912 68.5512 19.8325 70.7458 19.8325 70.7458C19.3564 69.8086 18.9305 69.2018 18.5509 68.8214C18.0894 68.3582 17.7013 68.2326 17.3993 68.2534C17.3615 68.256 17.3258 68.261 17.2944 68.2657C16.9168 68.3394 16.6903 68.6352 16.6231 68.7271C18.6977 65.5185 19.4361 62.8032 19.5011 62.5541C19.4886 62.3604 19.4865 62.1551 19.4948 61.9357C19.4948 61.9357 19.4823 61.6907 19.4613 61.6934C20.0507 60.6834 20.5353 59.8289 20.8562 58.6849C21.4016 57.9188 21.6827 56.2113 21.6827 56.2113C22.1358 54.531 21.8527 53.9648 21.6408 53.7755C21.9701 52.372 22.6833 48.421 20.9821 46.4576C20.9821 46.4576 20.3276 44.8492 17.7034 44.9666C17.7034 44.9666 16.6924 44.7737 16.2875 43.6306C16.2875 43.6306 15.3834 44.0453 15.3834 44.9739L14.9429 44.9011L14.5381 45.3582L14.0703 45.1631C14.0703 45.1631 14.0367 45.161 13.9696 45.1811C13.8794 45.2082 13.7263 45.2712 13.4997 45.4338C13.4997 45.4338 10.0847 47.9234 9.20999 51.1771C9.20999 51.1771 8.72543 52.5701 9.31487 56.1447C9.17223 56.2389 8.54083 56.7534 9.12398 58.4498C9.12398 58.4498 9.3778 59.7373 9.87283 60.3112C10.1518 61.2279 10.5776 62.1007 11.0957 62.8558C11.0895 62.8496 11.1545 63.2057 11.0957 63.7225C11.2153 64.0821 12.197 66.8814 13.9213 68.9695C13.829 68.8687 13.6423 68.702 13.3633 68.671C13.3088 68.6629 13.2479 68.6624 13.1871 68.6668C12.9081 68.687 12.5599 68.8373 12.1466 69.2475C11.7439 69.6445 11.2803 70.2845 10.758 71.2834C10.758 71.2834 10.328 68.939 10.156 67.0706C10.114 66.6196 10.0868 66.198 10.0826 65.8421C10.0826 65.7718 10.0826 65.7038 10.0847 65.638C8.58272 67.0045 5.23907 68.4181 5.23907 68.4181C3.72247 69.1682 3.08059 70.1332 3.08059 70.1332C1.2493 73.0393 0.737484 76.4409 0.607422 77.5979C0.607422 79.17 7.16691 80.6602 15.2552 81.0216C23.342 81.4908 29.9009 80.2524 29.9009 78.1621C29.7751 76.6202 29.259 72.1496 27.4298 68.6078C27.434 68.6021 26.7942 67.4872 25.2755 66.8265C25.2759 66.8267 22.0393 65.8241 20.5059 64.6261Z" fill="#B1C7E9"/>
</g>
</g>
<defs>
<filter id="filter0_d_15_2405" x="200.989" y="148.278" width="51.613" height="24.3458" filterUnits="userSpaceOnUse" color-interpolation-filters="sRGB">
<feFlood flood-opacity="0" result="BackgroundImageFix"/>
<feColorMatrix in="SourceAlpha" type="matrix" values="0 0 0 0 0 0 0 0 0 0 0 0 0 0 0 0 0 0 127 0" result="hardAlpha"/>
<feOffset dx="0.510765"/>
<feGaussianBlur stdDeviation="1.02153"/>
<feColorMatrix type="matrix" values="0 0 0 0 0.137255 0 0 0 0 0.203922 0 0 0 0 0.270588 0 0 0 0.1 0"/>
<feBlend mode="normal" in2="BackgroundImageFix" result="effect1_dropShadow_15_2405"/>
<feBlend mode="normal" in="SourceGraphic" in2="effect1_dropShadow_15_2405" result="shape"/>
</filter>
<filter id="filter1_d_15_2405" x="200.989" y="168.328" width="51.613" height="26.3422" filterUnits="userSpaceOnUse" color-interpolation-filters="sRGB">
<feFlood flood-opacity="0" result="BackgroundImageFix"/>
<feColorMatrix in="SourceAlpha" type="matrix" values="0 0 0 0 0 0 0 0 0 0 0 0 0 0 0 0 0 0 127 0" result="hardAlpha"/>
<feOffset dx="0.510765"/>
<feGaussianBlur stdDeviation="1.02153"/>
<feColorMatrix type="matrix" values="0 0 0 0 0.137255 0 0 0 0 0.203922 0 0 0 0 0.270588 0 0 0 0.1 0"/>
<feBlend mode="normal" in2="BackgroundImageFix" result="effect1_dropShadow_15_2405"/>
<feBlend mode="normal" in="SourceGraphic" in2="effect1_dropShadow_15_2405" result="shape"/>
</filter>
<filter id="filter2_d_15_2405" x="182.41" y="168.328" width="51.613" height="26.3422" filterUnits="userSpaceOnUse" color-interpolation-filters="sRGB">
<feFlood flood-opacity="0" result="BackgroundImageFix"/>
<feColorMatrix in="SourceAlpha" type="matrix" values="0 0 0 0 0 0 0 0 0 0 0 0 0 0 0 0 0 0 127 0" result="hardAlpha"/>
<feOffset dx="0.510765"/>
<feGaussianBlur stdDeviation="1.02153"/>
<feColorMatrix type="matrix" values="0 0 0 0 0.137255 0 0 0 0 0.203922 0 0 0 0 0.270588 0 0 0 0.1 0"/>
<feBlend mode="normal" in2="BackgroundImageFix" result="effect1_dropShadow_15_2405"/>
<feBlend mode="normal" in="SourceGraphic" in2="effect1_dropShadow_15_2405" result="shape"/>
</filter>
<filter id="filter3_d_15_2405" x="201.065" y="188.895" width="51.613" height="27.9844" filterUnits="userSpaceOnUse" color-interpolation-filters="sRGB">
<feFlood flood-opacity="0" result="BackgroundImageFix"/>
<feColorMatrix in="SourceAlpha" type="matrix" values="0 0 0 0 0 0 0 0 0 0 0 0 0 0 0 0 0 0 127 0" result="hardAlpha"/>
<feOffset dx="0.510765"/>
<feGaussianBlur stdDeviation="1.02153"/>
<feColorMatrix type="matrix" values="0 0 0 0 0.137255 0 0 0 0 0.203922 0 0 0 0 0.270588 0 0 0 0.1 0"/>
<feBlend mode="normal" in2="BackgroundImageFix" result="effect1_dropShadow_15_2405"/>
<feBlend mode="normal" in="SourceGraphic" in2="effect1_dropShadow_15_2405" result="shape"/>
</filter>
<filter id="filter4_d_15_2405" x="201.065" y="209.411" width="51.613" height="29.212" filterUnits="userSpaceOnUse" color-interpolation-filters="sRGB">
<feFlood flood-opacity="0" result="BackgroundImageFix"/>
<feColorMatrix in="SourceAlpha" type="matrix" values="0 0 0 0 0 0 0 0 0 0 0 0 0 0 0 0 0 0 127 0" result="hardAlpha"/>
<feOffset dx="0.510765"/>
<feGaussianBlur stdDeviation="1.02153"/>
<feColorMatrix type="matrix" values="0 0 0 0 0.137255 0 0 0 0 0.203922 0 0 0 0 0.270588 0 0 0 0.1 0"/>
<feBlend mode="normal" in2="BackgroundImageFix" result="effect1_dropShadow_15_2405"/>
<feBlend mode="normal" in="SourceGraphic" in2="effect1_dropShadow_15_2405" result="shape"/>
</filter>
<linearGradient id="paint0_linear_15_2405" x1="226.578" y1="-39.1049" x2="226.578" y2="248.636" gradientUnits="userSpaceOnUse">
<stop stop-color="#3364ED"/>
<stop offset="1" stop-color="#C3E4FF"/>
</linearGradient>
<linearGradient id="paint1_linear_15_2405" x1="38.9415" y1="215.219" x2="108.892" y2="224.224" gradientUnits="userSpaceOnUse">
<stop stop-color="#3364ED" stop-opacity="0.317284"/>
<stop offset="1" stop-color="#3364ED" stop-opacity="0.01"/>
</linearGradient>
<linearGradient id="paint2_linear_15_2405" x1="207.936" y1="14.8396" x2="122.105" y2="26.0556" gradientUnits="userSpaceOnUse">
<stop stop-color="#3364ED" stop-opacity="0.317284"/>
<stop offset="1" stop-color="#3364ED" stop-opacity="0.01"/>
</linearGradient>
<linearGradient id="paint3_linear_15_2405" x1="-24.4081" y1="127.013" x2="112.142" y2="279.01" gradientUnits="userSpaceOnUse">
<stop stop-color="#619BFF"/>
<stop offset="1" stop-color="#4D82FF"/>
</linearGradient>
<linearGradient id="paint4_linear_15_2405" x1="110.306" y1="153.211" x2="128.451" y2="134.625" gradientUnits="userSpaceOnUse">
<stop stop-color="#44D2FF"/>
<stop offset="1" stop-color="#2FB8FF"/>
</linearGradient>
<linearGradient id="paint5_linear_15_2405" x1="156.214" y1="135.613" x2="134.832" y2="118.998" gradientUnits="userSpaceOnUse">
<stop stop-color="#36D0FF"/>
<stop offset="1" stop-color="#0095D6"/>
</linearGradient>
<linearGradient id="paint6_linear_15_2405" x1="150.065" y1="90.9103" x2="93.0269" y2="90.9103" gradientUnits="userSpaceOnUse">
<stop stop-color="#8AE3FF"/>
<stop offset="1" stop-color="#52C4FF"/>
</linearGradient>
<linearGradient id="paint7_linear_15_2405" x1="178.436" y1="119.664" x2="178.436" y2="84.1903" gradientUnits="userSpaceOnUse">
<stop stop-color="#7BECB7"/>
<stop offset="1" stop-color="white" stop-opacity="0.01"/>
</linearGradient>
<linearGradient id="paint8_linear_15_2405" x1="51.6833" y1="92.5918" x2="34.9604" y2="92.5918" gradientUnits="userSpaceOnUse">
<stop stop-color="#61DAA1"/>
<stop offset="1" stop-color="#1BC1C7"/>
</linearGradient>
<linearGradient id="paint9_linear_15_2405" x1="253.12" y1="95.6762" x2="253.12" y2="257.556" gradientUnits="userSpaceOnUse">
<stop stop-color="#3364ED"/>
<stop offset="1" stop-color="#C3E4FF"/>
</linearGradient>
<linearGradient id="paint10_linear_15_2405" x1="254.447" y1="231.577" x2="223.563" y2="143.184" gradientUnits="userSpaceOnUse">
<stop stop-color="#E8EEF8"/>
<stop offset="1" stop-color="#DEE8FA"/>
</linearGradient>
<linearGradient id="paint11_linear_15_2405" x1="249.739" y1="154.013" x2="265.53" y2="99.7504" gradientUnits="userSpaceOnUse">
<stop stop-color="#95BCFF"/>
<stop offset="1" stop-color="#4D82FF"/>
</linearGradient>
<linearGradient id="paint12_linear_15_2405" x1="232.821" y1="178.981" x2="216.007" y2="161.887" gradientUnits="userSpaceOnUse">
<stop stop-color="#61DAA1"/>
<stop offset="1" stop-color="#1BC1C7"/>
</linearGradient>
<linearGradient id="paint13_linear_15_2405" x1="192.65" y1="175.397" x2="188.001" y2="176.045" gradientUnits="userSpaceOnUse">
<stop stop-color="#61DAA1"/>
<stop offset="1" stop-color="#1BC1C7"/>
</linearGradient>
<linearGradient id="paint14_linear_15_2405" x1="270.501" y1="95.9542" x2="237.326" y2="95.9542" gradientUnits="userSpaceOnUse">
<stop stop-color="#61DAA1"/>
<stop offset="1" stop-color="#1BC1C7"/>
</linearGradient>
<linearGradient id="paint15_linear_15_2405" x1="64.7383" y1="105.046" x2="64.7383" y2="179.882" gradientUnits="userSpaceOnUse">
<stop stop-color="#3364ED"/>
<stop offset="1" stop-color="#C3E4FF"/>
</linearGradient>
<linearGradient id="paint16_linear_15_2405" x1="9.86333" y1="163.849" x2="12.8499" y2="172.589" gradientUnits="userSpaceOnUse">
<stop stop-color="#619BFF"/>
<stop offset="1" stop-color="#4D82FF"/>
</linearGradient>
<linearGradient id="paint17_linear_15_2405" x1="43.5458" y1="164.691" x2="48.6702" y2="169.781" gradientUnits="userSpaceOnUse">
<stop stop-color="#619BFF"/>
<stop offset="1" stop-color="#4D82FF"/>
</linearGradient>
<linearGradient id="paint18_linear_15_2405" x1="55.8216" y1="117.973" x2="12.3997" y2="128.879" gradientUnits="userSpaceOnUse">
<stop stop-color="#61DAA1"/>
<stop offset="1" stop-color="#1BC1C7"/>
</linearGradient>
<linearGradient id="paint19_linear_15_2405" x1="17.8383" y1="135.847" x2="19.7484" y2="143.056" gradientUnits="userSpaceOnUse">
<stop stop-color="#619BFF"/>
<stop offset="1" stop-color="#4D82FF"/>
</linearGradient>
<linearGradient id="paint20_linear_15_2405" x1="17.0053" y1="134.836" x2="22.1297" y2="139.926" gradientUnits="userSpaceOnUse">
<stop stop-color="#619BFF"/>
<stop offset="1" stop-color="#4D82FF"/>
</linearGradient>
<linearGradient id="paint21_linear_15_2405" x1="85.1336" y1="72.9179" x2="-15.8356" y2="72.9179" gradientUnits="userSpaceOnUse">
<stop stop-color="#3364ED"/>
<stop offset="1" stop-color="#C3E4FF"/>
</linearGradient>
<linearGradient id="paint22_linear_15_2405" x1="64.7383" y1="5.91493" x2="64.7383" y2="83.2023" gradientUnits="userSpaceOnUse">
<stop stop-color="#3364ED"/>
<stop offset="1" stop-color="#C3E4FF"/>
</linearGradient>
<linearGradient id="paint23_linear_15_2405" x1="34.7201" y1="49.0117" x2="-33.4026" y2="32.497" gradientUnits="userSpaceOnUse">
<stop stop-color="#95BCFF"/>
<stop offset="1" stop-color="#4D82FF"/>
</linearGradient>
</defs>
</svg>
