<svg width="86" height="95" viewBox="0 0 86 95" fill="none" xmlns="http://www.w3.org/2000/svg">
<path d="M4.52886 29.9996L61.4713 30C63.9726 30 66 27.9857 66 25.5C66 23.0145 63.9726 21 61.4713 21H4.52886C2.02731 21 0 23.014 0 25.4996C0 27.9851 2.02731 29.9996 4.52886 29.9996Z" fill="#43BC6D"/>
<path d="M75.2867 47.499C81.7582 42.7736 86 34.9494 86 26.1078C86 11.7122 74.7638 0 60.9546 0H20.5248C18.0256 0 16 2.11069 16 4.71648C16 7.32096 18.0256 9.43296 20.5248 9.43296H60.9546C69.7742 9.43296 76.9505 16.9133 76.9505 26.1078C76.9505 35.3024 69.7742 42.7825 60.9546 42.7825H20.5248C18.0256 42.7825 16 44.8937 16 47.499C16 50.104 18.0256 52.2154 20.5248 52.2154H60.9546C69.7742 52.2154 76.9505 59.6966 76.9505 68.8916C76.9505 78.0853 69.7742 85.5654 60.9546 85.5654H20.5248C18.0256 85.5654 16 87.6779 16 90.2821C16 92.8867 18.0256 95 20.5248 95H60.9546C74.7638 95 86 83.2864 86 68.8916C86 60.0487 81.7582 52.2246 75.2867 47.499Z" fill="#43BC6D"/>
<path d="M66 68.5C66 66.0147 63.9726 64.0004 61.4713 64.0004L4.52886 64C2.02731 64 0 66.0143 0 68.4994C0 70.9847 2.02731 72.9984 4.52886 72.9984L61.4713 73C63.9726 73 66 70.9851 66 68.5Z" fill="#43BC6D"/>
</svg>
