<svg width="518" height="186" viewBox="0 0 518 186" fill="none" xmlns="http://www.w3.org/2000/svg">
<g filter="url(#filter0_d_1109_303)">
<rect width="145" height="458" rx="16" transform="matrix(0.340215 0.940348 -0.997859 0.0654031 463.019 0)" fill="white"/>
<rect width="100" height="101" rx="19" transform="matrix(0.997859 -0.0654031 0.340215 0.940348 35.4377 49.2036)" fill="#ECF1FC"/>
<g clip-path="url(#clip0_1109_303)">
<path d="M111.158 103.203L110.308 100.852C109.856 99.6049 108.898 98.4435 107.643 97.623C106.389 96.8026 104.94 96.3904 103.617 96.4772L94.8859 97.0494C93.5627 97.1362 92.4729 97.7147 91.8562 98.6578C91.2395 99.6009 91.1466 100.831 91.5977 102.078L92.4483 104.429" stroke="#0046FE" stroke-width="3" stroke-linecap="round" stroke-linejoin="round"/>
<path d="M97.5505 92.0613C100.306 91.8807 101.778 89.6293 100.839 87.0326C99.8992 84.4359 96.9038 82.4772 94.1483 82.6578C91.3928 82.8385 89.9206 85.0899 90.8601 87.6866C91.7996 90.2833 94.795 92.2419 97.5505 92.0613Z" stroke="#0046FE" stroke-width="3" stroke-linecap="round" stroke-linejoin="round"/>
<path d="M110.619 87.5952L113.171 94.6478" stroke="#0046FE" stroke-width="3" stroke-linecap="round" stroke-linejoin="round"/>
<path d="M115.637 90.8762L108.153 91.3667" stroke="#0046FE" stroke-width="3" stroke-linecap="round" stroke-linejoin="round"/>
</g>
<path d="M182.669 81.91C182.02 79.5626 181.571 77.0763 181.322 74.4511C181.073 71.826 180.999 69.268 181.099 66.7771C181.22 64.2535 181.484 61.8934 181.891 59.6969C182.319 57.4676 182.858 55.5926 183.51 54.072L167.912 55.0943L166.178 50.3023L188.817 48.8185L190.35 53.0576C189.686 54.2646 189.074 55.8928 188.514 57.9421C187.954 59.9914 187.553 62.2975 187.313 64.8604C187.061 67.3926 187.022 70.0995 187.197 72.9812C187.405 75.8606 187.917 78.7044 188.732 81.5126L182.669 81.91ZM222.815 62.9108C224.76 68.2865 225.211 72.4864 224.17 75.5107C223.117 78.5042 220.749 80.1217 217.066 80.3631C213.382 80.6045 209.981 79.3652 206.861 76.6452C203.73 73.8944 201.192 69.8312 199.247 64.4555C198.28 61.7831 197.685 59.4007 197.462 57.3084C197.261 55.1833 197.41 53.381 197.909 51.9018C198.441 50.4204 199.29 49.2641 200.458 48.4328C201.658 47.5995 203.171 47.1229 204.996 47.0033C208.68 46.7619 212.087 48.0165 215.218 50.7673C218.337 53.4873 220.87 57.5352 222.815 62.9108ZM216.703 63.3114C216.103 61.6527 215.444 60.1078 214.726 58.6769C214.008 57.246 213.232 56.0232 212.398 55.0087C211.585 53.9614 210.709 53.154 209.769 52.5867C208.83 52.0193 207.822 51.7709 206.747 51.8414C205.671 51.9119 204.869 52.2789 204.342 52.9424C203.847 53.6038 203.566 54.487 203.499 55.592C203.453 56.6642 203.593 57.9286 203.92 59.3851C204.279 60.8396 204.759 62.3962 205.359 64.0549C205.959 65.7137 206.602 67.2596 207.287 68.6927C208.005 70.1236 208.771 71.3628 209.583 72.4101C210.418 73.4246 211.304 74.2156 212.244 74.7829C213.216 75.3481 214.24 75.5955 215.315 75.525C216.391 75.4545 217.176 75.0885 217.671 74.4272C218.166 73.7658 218.436 72.899 218.482 71.8269C218.55 70.7218 218.42 69.441 218.093 67.9844C217.766 66.5279 217.303 64.9702 216.703 63.3114Z" fill="black"/>
<path d="M198.441 112.644C197.659 111.89 196.798 111.085 195.859 110.229C194.915 109.359 193.949 108.491 192.961 107.623C191.968 106.743 190.973 105.897 189.976 105.087C188.988 104.262 188.063 103.525 187.198 102.876L190.911 113.137L188.189 113.316L183.002 98.979L185.263 98.8308C186.058 99.3717 186.937 100.02 187.899 100.776C188.857 101.518 189.827 102.294 190.81 103.105C191.807 103.915 192.777 104.734 193.721 105.562C194.674 106.375 195.535 107.137 196.302 107.849L192.859 98.3329L195.603 98.1531L200.79 112.49L198.441 112.644ZM201.732 106.943C201.388 105.991 201.232 105.147 201.265 104.411C201.313 103.673 201.501 103.054 201.829 102.552C202.152 102.037 202.593 101.641 203.152 101.364C203.706 101.074 204.32 100.907 204.993 100.863C206.574 100.759 207.97 101.14 209.183 102.007C210.41 102.872 211.355 104.222 212.019 106.057C212.069 106.195 212.119 106.354 212.169 106.534C212.229 106.699 212.277 106.852 212.312 106.99L204.738 107.487C205.126 108.351 205.692 109.006 206.438 109.451C207.193 109.882 208.119 110.061 209.217 109.989C209.861 109.947 210.426 109.853 210.913 109.708C211.415 109.562 211.797 109.417 212.059 109.273L213.151 111.298C213.03 111.377 212.852 111.466 212.619 111.566C212.395 111.651 212.125 111.733 211.808 111.81C211.511 111.9 211.18 111.978 210.814 112.044C210.449 112.111 210.068 112.157 209.673 112.183C208.663 112.249 207.735 112.169 206.889 111.942C206.038 111.701 205.281 111.348 204.619 110.883C203.951 110.405 203.378 109.835 202.899 109.175C202.415 108.5 202.026 107.756 201.732 106.943ZM209.033 105.321C208.909 104.976 208.74 104.655 208.528 104.358C208.311 104.048 208.06 103.789 207.775 103.582C207.5 103.36 207.194 103.196 206.856 103.091C206.528 102.972 206.166 102.925 205.771 102.951C205.361 102.977 205.03 103.077 204.778 103.249C204.52 103.407 204.324 103.61 204.19 103.859C204.07 104.107 204.006 104.386 203.999 104.697C203.991 105.009 204.023 105.324 204.094 105.644L209.033 105.321ZM221.236 104.182C221.338 105.418 221.401 106.628 221.425 107.812C221.459 108.982 221.47 110.089 221.459 111.135L219.285 111.277C218.763 110.662 218.194 109.958 217.578 109.166C216.961 108.373 216.325 107.525 215.669 106.622C215.012 105.719 214.338 104.768 213.647 103.769C212.956 102.769 212.265 101.748 211.573 100.707L214.383 100.522C214.724 101.093 215.105 101.711 215.525 102.375C215.94 103.025 216.37 103.696 216.815 104.387C217.255 105.064 217.697 105.727 218.141 106.375C218.586 107.024 219.01 107.617 219.415 108.156C219.405 107.507 219.38 106.838 219.34 106.149C219.315 105.458 219.276 104.769 219.221 104.081C219.167 103.393 219.106 102.726 219.037 102.081C218.978 101.421 218.912 100.804 218.84 100.23L220.881 100.097C221.217 100.653 221.583 101.251 221.979 101.888C222.369 102.512 222.775 103.156 223.195 103.821C223.63 104.484 224.072 105.147 224.521 105.809C224.985 106.47 225.442 107.111 225.891 107.731C225.881 107.167 225.859 106.547 225.825 105.872C225.79 105.196 225.743 104.508 225.684 103.806C225.634 103.089 225.578 102.394 225.514 101.72C225.445 101.033 225.372 100.395 225.294 99.8073L228.038 99.6275C228.115 100.71 228.177 101.771 228.224 102.813C228.271 103.855 228.301 104.848 228.313 105.793C228.326 106.739 228.318 107.629 228.291 108.463C228.263 109.298 228.21 110.043 228.132 110.697L225.981 110.838C225.231 109.843 224.444 108.786 223.621 107.668C222.806 106.536 222.011 105.374 221.236 104.182ZM246.107 109.837C244.966 109.912 243.881 109.813 242.854 109.542C241.827 109.27 240.884 108.838 240.025 108.245C239.161 107.638 238.394 106.883 237.723 105.981C237.052 105.079 236.5 104.029 236.065 102.829C235.631 101.629 235.437 100.554 235.484 99.6054C235.544 98.6554 235.797 97.8412 236.24 97.1626C236.679 96.4703 237.292 95.9289 238.08 95.5384C238.868 95.1479 239.781 94.9186 240.82 94.8505C241.449 94.8093 242.038 94.8201 242.585 94.8831C243.127 94.9323 243.608 94.9996 244.029 95.085C244.449 95.1704 244.806 95.267 245.1 95.3748C245.394 95.4826 245.602 95.5607 245.724 95.6092L245.683 97.7933C245.257 97.6094 244.682 97.4494 243.958 97.3133C243.245 97.1624 242.507 97.1119 241.746 97.1618C241.087 97.205 240.513 97.3556 240.022 97.6137C239.526 97.8579 239.143 98.2078 238.873 98.6631C238.618 99.1175 238.491 99.6765 238.491 100.34C238.492 101.004 238.646 101.763 238.956 102.618C239.23 103.377 239.57 104.067 239.975 104.69C240.395 105.312 240.88 105.845 241.43 106.289C241.975 106.719 242.588 107.046 243.268 107.27C243.943 107.48 244.691 107.558 245.51 107.504C246.491 107.44 247.256 107.298 247.806 107.078C248.351 106.845 248.762 106.635 249.038 106.447L250.556 108.529C250.42 108.651 250.218 108.777 249.951 108.907C249.698 109.037 249.387 109.17 249.017 109.307C248.642 109.431 248.209 109.537 247.716 109.626C247.229 109.728 246.693 109.799 246.107 109.837ZM262.013 108.138C261.546 108.296 260.925 108.463 260.15 108.641C259.38 108.833 258.505 108.961 257.525 109.025C256.603 109.086 255.782 109.012 255.063 108.805C254.359 108.597 253.736 108.285 253.196 107.869C252.67 107.451 252.217 106.945 251.837 106.348C251.451 105.738 251.126 105.068 250.862 104.337L248.669 98.2752L251.325 98.1011L253.376 103.77C253.795 104.928 254.27 105.744 254.801 106.218C255.347 106.69 256.066 106.897 256.958 106.839C257.28 106.817 257.612 106.782 257.953 106.731C258.309 106.679 258.567 106.627 258.728 106.574L255.562 97.8234L258.218 97.6493L262.013 108.138ZM267.738 106.259C268.441 106.213 268.926 106.104 269.193 105.931C269.455 105.744 269.516 105.458 269.376 105.072C269.247 104.713 268.964 104.428 268.528 104.217C268.106 104.004 267.45 103.786 266.56 103.562C266.018 103.428 265.509 103.285 265.034 103.133C264.569 102.965 264.145 102.767 263.763 102.538C263.38 102.309 263.039 102.028 262.739 101.695C262.448 101.347 262.21 100.917 262.025 100.407C261.666 99.4141 261.772 98.6094 262.343 97.9931C262.909 97.3631 263.858 97.0044 265.19 96.9171C265.863 96.8729 266.53 96.8928 267.189 96.9766C267.844 97.0467 268.345 97.1268 268.692 97.217L268.943 99.276C268.605 99.1711 268.192 99.0852 267.703 99.0184C267.21 98.9378 266.663 98.9172 266.063 98.9565C265.521 98.992 265.115 99.1104 264.843 99.3118C264.566 99.4993 264.493 99.7724 264.622 100.131C264.687 100.31 264.774 100.467 264.882 100.601C265.005 100.734 265.17 100.858 265.376 100.971C265.577 101.071 265.831 101.174 266.14 101.281C266.443 101.374 266.807 101.47 267.233 101.569C267.942 101.749 268.556 101.935 269.075 102.126C269.589 102.305 270.035 102.522 270.413 102.78C270.8 103.023 271.122 103.312 271.379 103.649C271.635 103.985 271.851 104.394 272.025 104.877C272.399 105.911 272.274 106.724 271.649 107.316C271.034 107.893 269.972 108.23 268.465 108.329C267.455 108.395 266.613 108.366 265.938 108.241C265.269 108.129 264.792 108.033 264.508 107.953L264.214 105.834C264.664 105.959 265.184 106.073 265.776 106.176C266.382 106.277 267.036 106.305 267.738 106.259ZM270.468 93.9239L272.974 93.336L274.157 96.6047L278.24 96.337L278.996 98.4265L274.913 98.6941L276.507 103.101C276.822 103.969 277.193 104.58 277.62 104.934C278.047 105.287 278.612 105.44 279.315 105.394C279.798 105.363 280.205 105.287 280.536 105.166C280.881 105.045 281.149 104.935 281.338 104.838L282.496 106.795C282.234 106.94 281.876 107.09 281.423 107.247C280.976 107.417 280.415 107.525 279.742 107.569C278.922 107.623 278.197 107.564 277.566 107.394C276.95 107.223 276.411 106.954 275.949 106.589C275.482 106.21 275.083 105.749 274.752 105.206C274.416 104.65 274.118 104.013 273.858 103.295L270.468 93.9239ZM292.888 100.904C293.197 101.76 293.348 102.547 293.339 103.268C293.33 103.989 293.174 104.613 292.87 105.141C292.567 105.669 292.121 106.094 291.533 106.415C290.96 106.735 290.263 106.922 289.444 106.975C288.624 107.029 287.828 106.94 287.055 106.708C286.282 106.477 285.564 106.128 284.901 105.664C284.239 105.199 283.641 104.624 283.109 103.939C282.591 103.252 282.177 102.482 281.868 101.627C281.558 100.772 281.411 99.9907 281.425 99.2839C281.448 98.5623 281.612 97.9374 281.915 97.4092C282.233 96.8801 282.681 96.4625 283.26 96.1563C283.833 95.8363 284.522 95.65 285.327 95.5972C286.132 95.5445 286.921 95.6339 287.694 95.8656C288.477 96.0826 289.199 96.4235 289.862 96.8884C290.524 97.3532 291.115 97.9287 291.633 98.6148C292.16 99.2862 292.579 100.049 292.888 100.904ZM290.166 101.083C289.777 100.007 289.221 99.1753 288.499 98.5872C287.786 97.9845 286.991 97.7119 286.113 97.7694C285.235 97.827 284.662 98.1893 284.394 98.8563C284.135 99.5086 284.201 100.373 284.59 101.448C284.984 102.538 285.537 103.384 286.25 103.987C286.977 104.589 287.78 104.861 288.658 104.803C289.536 104.746 290.102 104.384 290.355 103.718C290.623 103.051 290.56 102.172 290.166 101.083ZM302.069 100.027C301.66 98.8965 301.212 98.0928 300.725 97.6165C300.248 97.1254 299.599 96.9067 298.78 96.9604C298.487 96.9796 298.173 97.0214 297.836 97.0857C297.5 97.1501 297.249 97.2019 297.083 97.241L300.242 105.971L297.586 106.145L293.798 95.6773C294.261 95.5058 294.879 95.3312 295.654 95.1533C296.443 94.9745 297.299 94.8549 298.221 94.7945C299.011 94.7427 299.69 94.797 300.257 94.9575C300.84 95.117 301.356 95.3443 301.808 95.6395C301.929 95.5186 302.091 95.3879 302.295 95.2475C302.499 95.1071 302.737 94.9785 303.01 94.8618C303.277 94.7313 303.567 94.6206 303.878 94.5296C304.204 94.4376 304.543 94.3801 304.895 94.3571C305.787 94.2985 306.564 94.3747 307.225 94.5855C307.895 94.7816 308.471 95.0898 308.952 95.51C309.444 95.9155 309.86 96.4247 310.202 97.0377C310.553 97.6359 310.861 98.3005 311.125 99.0314L313.326 105.114L310.67 105.288L308.611 99.5986C308.202 98.4677 307.761 97.6636 307.289 97.1862C306.812 96.6951 306.156 96.4769 305.322 96.5316C304.897 96.5594 304.52 96.6547 304.189 96.8176C303.854 96.9667 303.613 97.1095 303.468 97.2461C303.71 97.5832 303.922 97.9434 304.106 98.3267C304.289 98.71 304.461 99.1223 304.621 99.5637L306.784 105.542L304.128 105.716L302.069 100.027ZM314.005 99.5839C313.661 98.6323 313.505 97.7883 313.538 97.052C313.586 96.3146 313.774 95.6952 314.102 95.1937C314.425 94.6784 314.866 94.2824 315.425 94.0057C315.979 93.7152 316.593 93.5479 317.266 93.5038C318.847 93.4002 320.243 93.7817 321.456 94.6482C322.683 95.5137 323.628 96.8636 324.292 98.6979C324.342 98.8358 324.392 98.9949 324.442 99.1752C324.502 99.3407 324.549 99.4929 324.585 99.6317L317.011 100.128C317.398 100.992 317.965 101.647 318.71 102.092C319.465 102.523 320.392 102.702 321.489 102.63C322.133 102.588 322.699 102.494 323.186 102.35C323.687 102.204 324.069 102.059 324.332 101.914L325.424 103.939C325.303 104.018 325.125 104.107 324.892 104.207C324.668 104.293 324.398 104.374 324.081 104.451C323.784 104.541 323.453 104.619 323.087 104.686C322.722 104.752 322.341 104.798 321.946 104.824C320.936 104.89 320.008 104.81 319.162 104.583C318.311 104.342 317.554 103.989 316.891 103.525C316.224 103.046 315.651 102.476 315.172 101.816C314.688 101.142 314.299 100.398 314.005 99.5839ZM321.306 97.9618C321.181 97.617 321.013 97.2962 320.801 96.9995C320.583 96.689 320.332 96.4302 320.048 96.2229C319.773 96.0009 319.466 95.8375 319.129 95.7325C318.801 95.6128 318.439 95.5659 318.044 95.5918C317.634 95.6187 317.303 95.7181 317.051 95.8899C316.793 96.048 316.597 96.2514 316.462 96.5003C316.342 96.7482 316.279 97.0277 316.271 97.3387C316.264 97.6498 316.296 97.9654 316.367 98.2855L321.306 97.9618ZM332.565 95.0848C332.32 95.0303 331.988 94.9815 331.568 94.9384C331.157 94.8806 330.696 94.8685 330.184 94.902C329.891 94.9212 329.586 94.9694 329.27 95.0467C328.968 95.1229 328.758 95.1861 328.642 95.2361L331.778 103.904L329.121 104.078L325.394 93.7759C325.841 93.563 326.418 93.3558 327.124 93.1542C327.84 92.9378 328.666 92.799 329.603 92.7376C329.779 92.7261 329.989 92.7264 330.233 92.7387C330.472 92.7371 330.716 92.7493 330.965 92.7754C331.209 92.7876 331.451 92.8141 331.691 92.8549C331.925 92.8819 332.116 92.9117 332.262 92.9445L332.565 95.0848ZM340.2 101.51C340.903 101.464 341.387 101.354 341.655 101.181C341.917 100.995 341.978 100.708 341.838 100.322C341.708 99.9636 341.425 99.6786 340.989 99.4672C340.568 99.2548 339.912 99.0366 339.022 98.8125C338.479 98.6787 337.971 98.5355 337.496 98.3831C337.031 98.2159 336.607 98.0178 336.225 97.7887C335.842 97.5597 335.501 97.2785 335.2 96.9452C334.91 96.5972 334.672 96.168 334.487 95.6577C334.128 94.6647 334.234 93.8601 334.805 93.2438C335.371 92.6137 336.32 92.255 337.652 92.1677C338.325 92.1235 338.991 92.1434 339.651 92.2272C340.306 92.2973 340.807 92.3774 341.154 92.4676L341.404 94.5266C341.067 94.4217 340.654 94.3358 340.165 94.269C339.671 94.1884 339.125 94.1678 338.524 94.2071C337.983 94.2426 337.576 94.361 337.305 94.5624C337.028 94.75 336.954 95.023 337.084 95.3816C337.149 95.5609 337.236 95.7176 337.344 95.8517C337.467 95.9848 337.632 96.1081 337.838 96.2217C338.038 96.3215 338.293 96.4248 338.601 96.5317C338.905 96.6247 339.269 96.7209 339.695 96.8201C340.404 96.9995 341.018 97.1851 341.537 97.377C342.051 97.5551 342.496 97.773 342.874 98.0306C343.262 98.2734 343.584 98.563 343.84 98.8991C344.097 99.2353 344.312 99.6447 344.487 100.127C344.861 101.162 344.736 101.975 344.111 102.566C343.496 103.143 342.434 103.481 340.927 103.58C339.917 103.646 339.075 103.617 338.4 103.491C337.731 103.38 337.254 103.284 336.97 103.204L336.675 101.084C337.125 101.21 337.646 101.324 338.237 101.427C338.843 101.528 339.498 101.556 340.2 101.51Z" fill="#888888"/>
<path d="M253.768 135.971C253.956 136.491 254.555 136.882 255.107 136.846C255.658 136.81 255.952 136.36 255.764 135.84L253.768 135.971ZM249.448 119.209C248.925 118.867 248.293 118.908 248.036 119.301L243.851 125.702C243.594 126.095 243.81 126.69 244.332 127.032C244.855 127.373 245.487 127.332 245.744 126.939L249.464 121.25L257.033 126.199C257.556 126.541 258.187 126.499 258.444 126.107C258.701 125.714 258.486 125.118 257.963 124.777L249.448 119.209ZM255.764 135.84L249.98 119.854L247.985 119.985L253.768 135.971L255.764 135.84Z" fill="#34C636"/>
<path d="M194.208 132.759L197.05 132.573L195.983 129.624L197.707 129.511L198.774 132.46L201.616 132.273L202.171 133.808L199.329 133.994L200.396 136.943L198.672 137.056L197.605 134.107L194.763 134.294L194.208 132.759ZM209.174 129.067C209.304 129.428 209.353 129.79 209.321 130.151C209.284 130.503 209.198 130.852 209.063 131.2C208.934 131.537 208.766 131.872 208.559 132.203C208.349 132.525 208.137 132.842 207.923 133.154C207.807 133.316 207.68 133.509 207.544 133.733C207.407 133.958 207.281 134.182 207.166 134.405C207.05 134.628 206.96 134.845 206.894 135.054C206.824 135.254 206.808 135.419 206.845 135.55L211.762 135.228L212.317 136.763L205.276 137.224C205.237 137.145 205.197 137.05 205.157 136.939C205.113 136.819 205.081 136.729 205.059 136.668C204.885 136.187 204.805 135.74 204.819 135.329C204.841 134.906 204.921 134.511 205.06 134.142C205.199 133.774 205.378 133.423 205.595 133.091C205.813 132.758 206.032 132.431 206.253 132.108C206.425 131.861 206.588 131.619 206.742 131.383C206.897 131.147 207.021 130.918 207.115 130.696C207.216 130.464 207.28 130.234 207.307 130.006C207.33 129.768 207.298 129.529 207.21 129.288C207.022 128.767 206.728 128.406 206.329 128.206C205.93 128.007 205.501 127.922 205.043 127.952C204.745 127.971 204.483 128.03 204.257 128.127C204.03 128.224 203.836 128.334 203.674 128.457C203.522 128.58 203.393 128.707 203.288 128.837C203.179 128.957 203.1 129.055 203.051 129.13L201.63 127.914C201.932 127.483 202.337 127.128 202.846 126.848C203.362 126.558 203.966 126.39 204.658 126.344C205.839 126.267 206.803 126.476 207.549 126.971C208.302 127.456 208.843 128.155 209.174 129.067ZM216.402 135.478C216.529 135.829 216.505 136.124 216.329 136.361C216.164 136.598 215.906 136.728 215.555 136.751C215.193 136.774 214.85 136.684 214.525 136.479C214.201 136.275 213.975 135.997 213.848 135.646C213.721 135.295 213.74 135.001 213.905 134.764C214.066 134.517 214.328 134.382 214.689 134.358C215.041 134.335 215.38 134.431 215.709 134.646C216.044 134.85 216.275 135.127 216.402 135.478ZM222.639 133.036C222.519 132.705 222.343 132.414 222.11 132.162C221.877 131.911 221.553 131.706 221.136 131.549C220.73 131.39 220.218 131.285 219.6 131.233C218.993 131.181 218.247 131.183 217.364 131.241C217.132 130.271 216.893 129.352 216.644 128.485C216.393 127.608 216.13 126.732 215.857 125.857L221.509 125.486L222.064 127.021L218.057 127.284C218.108 127.455 218.163 127.652 218.221 127.874C218.287 128.085 218.349 128.302 218.407 128.524C218.476 128.745 218.537 128.957 218.588 129.159C218.639 129.361 218.68 129.533 218.709 129.674C220.314 129.651 221.597 129.916 222.56 130.469C223.53 131.012 224.202 131.799 224.575 132.833C224.746 133.304 224.819 133.746 224.793 134.158C224.768 134.571 224.633 134.934 224.387 135.248C224.141 135.562 223.782 135.821 223.312 136.027C222.838 136.222 222.244 136.343 221.531 136.39C221.244 136.409 220.944 136.408 220.631 136.387C220.319 136.367 220.013 136.335 219.715 136.293C219.43 136.26 219.171 136.221 218.936 136.175C218.702 136.129 218.522 136.084 218.397 136.041L218.209 134.482C218.469 134.568 218.828 134.657 219.287 134.75C219.753 134.833 220.289 134.854 220.896 134.814C221.311 134.787 221.653 134.723 221.922 134.624C222.187 134.514 222.383 134.378 222.51 134.216C222.647 134.053 222.723 133.873 222.74 133.677C222.752 133.471 222.719 133.257 222.639 133.036ZM229.966 127.612C230.296 128.525 230.3 129.243 229.977 129.768C229.666 130.291 229.111 130.579 228.312 130.632C227.918 130.657 227.535 130.621 227.161 130.522C226.784 130.413 226.435 130.246 226.114 130.021C225.792 129.796 225.499 129.512 225.234 129.17C224.975 128.817 224.764 128.415 224.601 127.964C224.267 127.041 224.258 126.323 224.574 125.809C224.896 125.285 225.456 124.997 226.255 124.944C227.053 124.892 227.786 125.096 228.453 125.555C229.128 126.004 229.632 126.689 229.966 127.612ZM228.449 127.712C228.257 127.18 228.007 126.791 227.7 126.544C227.399 126.286 227.068 126.169 226.706 126.193C226.345 126.217 226.111 126.371 226.007 126.655C225.899 126.929 225.942 127.332 226.134 127.863C226.326 128.395 226.572 128.789 226.873 129.047C227.169 129.295 227.499 129.406 227.86 129.383C228.222 129.359 228.457 129.21 228.565 128.936C228.68 128.651 228.641 128.243 228.449 127.712ZM232.26 124.782L234.096 124.661L231.625 135.497L229.789 135.617L232.26 124.782ZM239.305 132.329C239.635 133.242 239.639 133.96 239.317 134.485C239.005 135.008 238.45 135.296 237.652 135.349C237.258 135.374 236.872 135.333 236.495 135.224C236.122 135.125 235.774 134.963 235.453 134.738C235.132 134.513 234.839 134.229 234.573 133.887C234.315 133.534 234.104 133.132 233.941 132.681C233.607 131.758 233.598 131.04 233.913 130.526C234.235 130.002 234.796 129.714 235.594 129.661C236.392 129.609 237.125 129.813 237.793 130.272C238.467 130.721 238.971 131.406 239.305 132.329ZM237.788 132.429C237.596 131.897 237.346 131.508 237.039 131.261C236.739 131.003 236.408 130.886 236.046 130.91C235.684 130.934 235.451 131.088 235.347 131.372C235.239 131.646 235.281 132.049 235.473 132.58C235.666 133.112 235.912 133.507 236.212 133.764C236.509 134.012 236.838 134.124 237.2 134.1C237.562 134.076 237.797 133.927 237.905 133.653C238.019 133.368 237.981 132.96 237.788 132.429Z" fill="#34C636"/>
<circle cx="3" cy="3" r="3" transform="matrix(0.997859 -0.0654031 0.340215 0.940348 455.492 58.252)" fill="#C0C1C5"/>
<circle cx="3" cy="3" r="3" transform="matrix(0.997859 -0.0654031 0.340215 0.940348 459.235 68.5957)" fill="#C0C1C5"/>
<circle cx="3" cy="3" r="3" transform="matrix(0.997859 -0.0654031 0.340215 0.940348 462.977 78.9395)" fill="#C0C1C5"/>
</g>
<defs>
<filter id="filter0_d_1109_303" x="0.536407" y="1.00928" width="517.278" height="184.286" filterUnits="userSpaceOnUse" color-interpolation-filters="sRGB">
<feFlood flood-opacity="0" result="BackgroundImageFix"/>
<feColorMatrix in="SourceAlpha" type="matrix" values="0 0 0 0 0 0 0 0 0 0 0 0 0 0 0 0 0 0 127 0" result="hardAlpha"/>
<feOffset dy="10"/>
<feGaussianBlur stdDeviation="5"/>
<feColorMatrix type="matrix" values="0 0 0 0 0 0 0 0 0 0 0 0 0 0 0 0 0 0 0.1 0"/>
<feBlend mode="normal" in2="BackgroundImageFix" result="effect1_dropShadow_1109_303"/>
<feBlend mode="normal" in="SourceGraphic" in2="effect1_dropShadow_1109_303" result="shape"/>
</filter>
<clipPath id="clip0_1109_303">
<rect width="30" height="30" fill="white" transform="matrix(0.997859 -0.0654031 0.340215 0.940348 82.2703 79.8267)"/>
</clipPath>
</defs>
</svg>
