<svg width="475" height="357" viewBox="0 0 475 357" fill="none" xmlns="http://www.w3.org/2000/svg">
<g filter="url(#filter0_d_1109_290)">
<rect width="350" height="335" rx="16" transform="matrix(0.997859 -0.0654031 0.340215 0.940348 6 22.8911)" fill="white"/>
<rect x="1.33807" y="0.874944" width="306" height="59" rx="19" transform="matrix(0.997859 -0.0654031 0.340215 0.940348 113.392 258.56)" stroke="#DADDE6" stroke-width="2"/>
<path d="M76.9583 54.1277C77.2168 53.1481 77.4574 52.1568 77.6802 51.1539C77.9031 50.151 78.0704 49.1453 78.1822 48.1368L80.9762 47.9537C80.712 49.3315 80.4122 50.7053 80.077 52.075C79.7504 53.4312 79.3686 54.804 78.9314 56.1932L80.7822 61.3087L78.2676 61.4735L76.4304 56.3956C75.027 55.1142 73.6813 53.8419 72.3934 52.5786C71.1056 51.3153 69.8487 50.0435 68.6227 48.7633L71.5764 48.5698C72.3959 49.5172 73.2597 50.4553 74.1678 51.3841C75.0759 52.3129 76.006 53.2274 76.9583 54.1277ZM93.9318 55.4025C94.213 56.1799 94.3496 56.8961 94.3414 57.5513C94.3333 58.2064 94.1913 58.774 93.9156 59.2542C93.6398 59.7343 93.2346 60.1203 92.7 60.412C92.1788 60.7029 91.5456 60.8727 90.8005 60.9216C90.0554 60.9704 89.3315 60.8895 88.6288 60.6788C87.926 60.4682 87.2735 60.1516 86.6711 59.729C86.0688 59.3064 85.5255 58.7837 85.0414 58.1608C84.5705 57.5371 84.1945 56.8365 83.9133 56.0592C83.632 55.2818 83.4977 54.5718 83.5104 53.9292C83.5319 53.2732 83.6805 52.7052 83.9562 52.225C84.2453 51.744 84.6527 51.3643 85.1785 51.086C85.6998 50.7951 86.3264 50.6257 87.0581 50.5777C87.7899 50.5298 88.5071 50.6111 89.2099 50.8218C89.9214 51.019 90.5783 51.3289 91.1807 51.7515C91.7831 52.1741 92.3197 52.6973 92.7905 53.321C93.2701 53.9313 93.6505 54.6252 93.9318 55.4025ZM91.4571 55.5647C91.1033 54.5868 90.5981 53.8305 89.9416 53.2959C89.2939 52.748 88.5709 52.5001 87.7726 52.5525C86.9743 52.6048 86.4533 52.9342 86.2096 53.5405C85.9747 54.1335 86.0341 54.919 86.388 55.897C86.7463 56.8875 87.2494 57.6567 87.8971 58.2047C88.5581 58.7518 89.2878 58.9992 90.0861 58.9468C90.8843 58.8945 91.3987 58.5656 91.6291 57.9601C91.8728 57.3537 91.8154 56.5552 91.4571 55.5647ZM106.655 59.3048C106.23 59.4482 105.666 59.6007 104.961 59.7624C104.262 59.9366 103.466 60.0529 102.575 60.1113C101.737 60.1663 100.991 60.0996 100.337 59.9115C99.6963 59.7224 99.1306 59.4386 98.6395 59.0601C98.1617 58.6807 97.7498 58.2199 97.4039 57.6778C97.0534 57.1232 96.758 56.5136 96.5175 55.8491L94.5239 50.3387L96.9387 50.1804L98.8031 55.3335C99.1841 56.3867 99.616 57.1285 100.099 57.559C100.594 57.9885 101.248 58.1767 102.06 58.1235C102.353 58.1043 102.654 58.0717 102.964 58.0257C103.288 57.9789 103.523 57.9314 103.669 57.8833L100.79 49.928L103.205 49.7697L106.655 59.3048ZM112.968 51.2284C112.745 51.1788 112.443 51.1344 112.061 51.0953C111.688 51.0427 111.269 51.0317 110.803 51.0622C110.537 51.0797 110.26 51.1235 109.972 51.1937C109.698 51.263 109.507 51.3204 109.401 51.3659L112.252 59.246L109.837 59.4043L106.449 50.0384C106.856 49.8449 107.38 49.6565 108.022 49.4732C108.673 49.2766 109.424 49.1503 110.275 49.0945C110.435 49.0841 110.626 49.0844 110.848 49.0955C111.065 49.0941 111.287 49.1052 111.513 49.1289C111.735 49.14 111.955 49.1641 112.173 49.2012C112.386 49.2257 112.559 49.2528 112.693 49.2826L112.968 51.2284ZM131.845 57.9618C131.472 57.46 131.096 56.9649 130.715 56.4764C130.334 55.988 129.955 55.4866 129.578 54.9722L123.751 55.3541C123.755 55.8929 123.75 56.4259 123.737 56.953C123.732 57.4668 123.727 57.9805 123.722 58.4942L121.108 58.6656C121.123 57.2399 121.15 55.9225 121.19 54.7134C121.229 53.5043 121.278 52.3587 121.336 51.2768C121.407 50.1939 121.49 49.1617 121.584 48.18C121.678 47.1984 121.79 46.2284 121.92 45.27L124.295 45.1144C125.097 46.0117 125.889 46.9224 126.673 47.8465C127.457 48.7706 128.259 49.7448 129.079 50.7692C129.912 51.7928 130.775 52.8786 131.667 54.0266C132.573 55.1738 133.536 56.4262 134.559 57.784L131.845 57.9618ZM123.97 47.7156C123.904 48.4002 123.844 49.232 123.79 50.211C123.749 51.1892 123.717 52.2502 123.695 53.394L128.245 53.0957C127.416 52.0078 126.627 50.9941 125.878 50.0549C125.13 49.1156 124.494 48.3359 123.97 47.7156ZM133.56 52.8244C133.297 52.0972 133.171 51.4123 133.184 50.7697C133.192 50.1146 133.332 49.5407 133.603 49.048C133.888 48.5545 134.302 48.1551 134.845 47.8499C135.388 47.5448 136.059 47.366 136.857 47.3137C137.842 47.2492 138.835 47.3574 139.835 47.6384L139.99 49.5343C139.67 49.4398 139.316 49.3666 138.93 49.315C138.557 49.2624 138.171 49.2492 137.771 49.2754C136.827 49.3373 136.21 49.6665 135.922 50.263C135.63 50.8469 135.667 51.6466 136.034 52.6622C136.388 53.6402 136.902 54.4023 137.577 54.9485C138.246 55.4822 139.133 55.7128 140.238 55.6405C140.65 55.6134 141.042 55.5492 141.414 55.4478C141.786 55.3464 142.098 55.2297 142.35 55.0977L143.37 56.9562C143.149 57.099 142.784 57.2384 142.275 57.3745C141.779 57.5097 141.245 57.596 140.673 57.6335C139.781 57.6919 138.958 57.6176 138.202 57.4104C137.454 57.1898 136.78 56.8683 136.177 56.4457C135.584 56.0097 135.067 55.4852 134.627 54.8723C134.183 54.2468 133.827 53.5642 133.56 52.8244ZM142.973 52.2074C142.71 51.4802 142.585 50.7953 142.597 50.1527C142.606 49.4976 142.745 48.9237 143.016 48.431C143.301 47.9375 143.715 47.5381 144.258 47.233C144.802 46.9278 145.472 46.7491 146.271 46.6967C147.255 46.6322 148.248 46.7404 149.248 47.0214L149.403 48.9173C149.083 48.8228 148.73 48.7497 148.343 48.698C147.97 48.6454 147.584 48.6322 147.185 48.6584C146.24 48.7203 145.624 49.0495 145.336 49.646C145.043 50.2299 145.08 51.0297 145.448 52.0452C145.802 53.0232 146.316 53.7853 146.99 54.3315C147.66 54.8652 148.547 55.0959 149.651 55.0235C150.064 54.9964 150.456 54.9322 150.828 54.8308C151.2 54.7295 151.512 54.6127 151.763 54.4807L152.783 56.3392C152.562 56.482 152.197 56.6214 151.688 56.7575C151.192 56.8927 150.658 56.979 150.086 57.0165C149.195 57.0749 148.371 57.0006 147.615 56.7934C146.868 56.5729 146.193 56.2513 145.591 55.8287C144.997 55.3927 144.481 54.8682 144.041 54.2553C143.597 53.6298 143.241 52.9472 142.973 52.2074ZM162.184 50.929C162.465 51.7064 162.602 52.4226 162.593 53.0778C162.585 53.7329 162.443 54.3006 162.168 54.7807C161.892 55.2608 161.487 55.6468 160.952 55.9385C160.431 56.2294 159.798 56.3993 159.052 56.4481C158.307 56.4969 157.584 56.416 156.881 56.2054C156.178 55.9947 155.525 55.6781 154.923 55.2555C154.321 54.8329 153.778 54.3102 153.293 53.6873C152.823 53.0636 152.446 52.3631 152.165 51.5857C151.884 50.8083 151.75 50.0984 151.762 49.4558C151.784 48.7998 151.932 48.2317 152.208 47.7515C152.497 47.2705 152.905 46.8909 153.431 46.6125C153.952 46.3216 154.578 46.1522 155.31 46.1043C156.042 46.0563 156.759 46.1376 157.462 46.3483C158.173 46.5455 158.83 46.8554 159.433 47.278C160.035 47.7006 160.572 48.2238 161.042 48.8475C161.522 49.4579 161.903 50.1517 162.184 50.929ZM159.709 51.0912C159.355 50.1133 158.85 49.357 158.194 48.8225C157.546 48.2745 156.823 48.0267 156.025 48.079C155.226 48.1313 154.705 48.4607 154.462 49.0671C154.227 49.6601 154.286 50.4455 154.64 51.4235C154.998 52.414 155.501 53.1832 156.149 53.7312C156.81 54.2783 157.54 54.5257 158.338 54.4734C159.136 54.421 159.651 54.0921 159.881 53.4866C160.125 52.8802 160.067 52.0817 159.709 51.0912ZM174.907 54.8313C174.482 54.9747 173.918 55.1272 173.213 55.2889C172.514 55.4631 171.718 55.5794 170.827 55.6379C169.989 55.6928 169.243 55.6262 168.589 55.438C167.948 55.2489 167.383 54.9651 166.891 54.5866C166.414 54.2072 166.002 53.7464 165.656 53.2044C165.305 52.6497 165.01 52.0402 164.77 51.3757L162.776 45.8652L165.191 45.7069L167.055 50.8601C167.436 51.9132 167.868 52.6551 168.351 53.0855C168.846 53.5151 169.5 53.7032 170.312 53.6501C170.605 53.6309 170.906 53.5983 171.216 53.5523C171.54 53.5054 171.775 53.4579 171.921 53.4098L169.042 45.4545L171.457 45.2962L174.907 54.8313ZM174.646 45.4145C175.067 45.2586 175.629 45.0998 176.333 44.9381C177.038 44.7764 177.842 44.666 178.747 44.6067C179.598 44.5508 180.351 44.617 181.005 44.8052C181.654 44.9809 182.217 45.2584 182.695 45.6378C183.182 46.0038 183.594 46.4646 183.931 47.02C184.277 47.5621 184.57 48.1654 184.81 48.8299L186.811 54.3592L184.396 54.5175L182.525 49.3455C182.334 48.8189 182.133 48.3765 181.922 48.0181C181.719 47.6463 181.491 47.3533 181.236 47.1389C180.99 46.9112 180.703 46.7567 180.374 46.6756C180.054 46.5811 179.687 46.5473 179.275 46.5744C178.969 46.5944 178.656 46.6341 178.337 46.6936C178.018 46.753 177.783 46.8005 177.633 46.836L180.504 54.7725L178.089 54.9308L174.646 45.4145ZM185.146 41.7421L187.425 41.2077L188.5 44.1792L192.212 43.9359L192.899 45.8354L189.187 46.0787L190.637 50.0846C190.922 50.8744 191.26 51.4299 191.648 51.751C192.037 52.0721 192.55 52.2117 193.189 52.1699C193.628 52.1411 193.998 52.0719 194.299 51.9623C194.613 51.8519 194.856 51.7525 195.029 51.6642L196.081 53.4435C195.842 53.5747 195.517 53.7115 195.106 53.854C194.699 54.009 194.189 54.1066 193.577 54.1467C192.832 54.1955 192.173 54.1425 191.599 53.9876C191.039 53.8318 190.549 53.5879 190.129 53.256C189.705 52.9116 189.342 52.4926 189.041 51.9989C188.735 51.4927 188.464 50.9136 188.229 50.2616L185.146 41.7421ZM205.596 51.3181C206.501 51.2589 207.107 51.0715 207.415 50.7561C207.723 50.4407 207.782 50.0197 207.592 49.4931C207.478 49.1796 207.308 48.9149 207.08 48.6988C206.865 48.4818 206.593 48.2943 206.263 48.1362C205.942 47.9647 205.568 47.8159 205.141 47.6899C204.71 47.5513 204.227 47.4225 203.694 47.3034C203.156 47.1718 202.627 47.0268 202.107 46.8684C201.595 46.6966 201.114 46.4778 200.664 46.2121C200.227 45.9455 199.829 45.6186 199.471 45.2314C199.126 44.8432 198.852 44.367 198.648 43.8028C198.222 42.6243 198.321 41.6744 198.945 40.9532C199.565 40.2195 200.62 39.8038 202.11 39.7061C202.975 39.6494 203.774 39.6933 204.507 39.8378C205.249 39.9688 205.852 40.1283 206.315 40.3161L206.23 42.2855C205.692 42.0769 205.127 41.9278 204.536 41.8382C203.959 41.7477 203.384 41.7212 202.812 41.7587C202.133 41.8031 201.649 41.9697 201.358 42.2583C201.081 42.546 201.028 42.9281 201.201 43.4045C201.305 43.6929 201.456 43.9397 201.652 44.145C201.858 44.3369 202.103 44.5069 202.389 44.6551C202.687 44.8024 203.014 44.935 203.37 45.0528C203.739 45.1698 204.133 45.2788 204.551 45.3797C205.284 45.5627 205.947 45.7567 206.539 45.9618C207.139 46.1535 207.672 46.401 208.135 46.7043C208.608 46.9942 209.017 47.3524 209.362 47.7791C209.702 48.1932 209.984 48.7074 210.206 49.3217C210.632 50.5003 210.518 51.4448 209.862 52.1552C209.216 52.8522 208.041 53.2565 206.338 53.3681C205.766 53.4056 205.226 53.4024 204.72 53.3586C204.232 53.3264 203.783 53.2724 203.374 53.1965C202.979 53.1198 202.63 53.04 202.328 52.9571C202.021 52.8617 201.772 52.7753 201.58 52.698L201.618 50.7125C202.045 50.877 202.599 51.0333 203.279 51.1812C203.959 51.3292 204.731 51.3748 205.596 51.3181ZM221.994 51.7451C221.569 51.8885 221.004 52.041 220.3 52.2027C219.6 52.3769 218.805 52.4932 217.913 52.5517C217.075 52.6066 216.329 52.54 215.675 52.3518C215.035 52.1627 214.469 51.8789 213.978 51.5004C213.5 51.121 213.088 50.6602 212.742 50.1181C212.392 49.5635 212.096 48.954 211.856 48.2895L209.862 42.779L212.277 42.6207L214.142 47.7738C214.523 48.827 214.954 49.5688 215.437 49.9993C215.933 50.4288 216.587 50.617 217.398 50.5638C217.691 50.5447 217.992 50.5121 218.303 50.4661C218.626 50.4192 218.861 50.3717 219.007 50.3236L216.129 42.3683L218.544 42.21L221.994 51.7451ZM222.821 46.9739C222.558 46.2467 222.433 45.5618 222.446 44.9192C222.454 44.2641 222.593 43.6902 222.865 43.1975C223.149 42.7039 223.563 42.3046 224.106 41.9994C224.65 41.6943 225.321 41.5155 226.119 41.4632C227.104 41.3987 228.096 41.5069 229.097 41.7879L229.251 43.6838C228.931 43.5892 228.578 43.5161 228.191 43.4644C227.818 43.4119 227.432 43.3987 227.033 43.4249C226.088 43.4868 225.472 43.816 225.184 44.4124C224.891 44.9964 224.929 45.7961 225.296 46.8117C225.65 47.7897 226.164 48.5518 226.838 49.098C227.508 49.6317 228.395 49.8623 229.499 49.79C229.912 49.7629 230.304 49.6987 230.676 49.5973C231.048 49.4959 231.36 49.3792 231.612 49.2472L232.631 51.1057C232.411 51.2485 232.046 51.3879 231.536 51.524C231.04 51.6592 230.506 51.7455 229.934 51.783C229.043 51.8414 228.219 51.7671 227.463 51.5599C226.716 51.3393 226.041 51.0178 225.439 50.5952C224.845 50.1592 224.329 49.6347 223.889 49.0217C223.445 48.3963 223.089 47.7137 222.821 46.9739ZM232.235 46.3569C231.972 45.6297 231.846 44.9448 231.859 44.3022C231.867 43.6471 232.007 43.0732 232.278 42.5805C232.563 42.087 232.977 41.6876 233.52 41.3824C234.063 41.0773 234.734 40.8985 235.532 40.8462C236.517 40.7817 237.509 40.8899 238.51 41.1709L238.665 43.0668C238.345 42.9723 237.991 42.8991 237.605 42.8475C237.232 42.7949 236.846 42.7817 236.446 42.8079C235.502 42.8698 234.885 43.199 234.597 43.7955C234.305 44.3794 234.342 45.1791 234.709 46.1947C235.063 47.1727 235.577 47.9348 236.252 48.481C236.921 49.0147 237.808 49.2453 238.913 49.173C239.325 49.1459 239.717 49.0817 240.089 48.9803C240.461 48.8789 240.773 48.7622 241.025 48.6302L242.045 50.4887C241.824 50.6315 241.459 50.7709 240.95 50.907C240.454 51.0422 239.92 51.1285 239.348 51.166C238.456 51.2244 237.633 51.1501 236.877 50.9429C236.129 50.7223 235.455 50.4008 234.852 49.9782C234.259 49.5422 233.742 49.0177 233.302 48.4048C232.858 47.7793 232.502 47.0967 232.235 46.3569ZM241.662 45.7776C241.349 44.9124 241.207 44.1452 241.237 43.4757C241.281 42.8055 241.452 42.2423 241.75 41.7864C242.044 41.3179 242.444 40.9579 242.953 40.7064C243.457 40.4424 244.014 40.2903 244.626 40.2502C246.063 40.156 247.333 40.5028 248.435 41.2905C249.551 42.0773 250.41 43.3045 251.013 44.9721C251.059 45.0975 251.104 45.2421 251.15 45.4059C251.204 45.5564 251.248 45.6948 251.28 45.821L244.394 46.2723C244.747 47.0578 245.262 47.653 245.939 48.0578C246.626 48.4492 247.468 48.6122 248.466 48.5468C249.051 48.5085 249.565 48.4234 250.008 48.2917C250.464 48.1592 250.811 48.0273 251.05 47.8961L252.043 49.7371C251.932 49.8085 251.771 49.8897 251.559 49.9806C251.355 50.0581 251.11 50.132 250.822 50.2022C250.552 50.2841 250.251 50.3551 249.918 50.4154C249.586 50.4757 249.24 50.5176 248.881 50.5412C247.963 50.6013 247.119 50.5283 246.35 50.322C245.576 50.1032 244.888 49.7825 244.286 49.3599C243.679 48.9248 243.158 48.407 242.723 47.8066C242.283 47.1936 241.929 46.5173 241.662 45.7776ZM248.299 44.3028C248.186 43.9894 248.033 43.6978 247.84 43.4281C247.642 43.1458 247.414 42.9105 247.155 42.7221C246.905 42.5203 246.627 42.3717 246.32 42.2763C246.022 42.1674 245.693 42.1248 245.334 42.1484C244.961 42.1728 244.66 42.2631 244.431 42.4193C244.197 42.563 244.018 42.748 243.896 42.9742C243.787 43.1996 243.729 43.4536 243.722 43.7365C243.716 44.0193 243.744 44.3062 243.809 44.5972L248.299 44.3028ZM257.426 48.0558C258.065 48.0139 258.506 47.9144 258.749 47.7573C258.987 47.5877 259.043 47.3273 258.915 46.9763C258.798 46.6503 258.54 46.3912 258.144 46.199C257.761 46.0059 257.165 45.8075 256.355 45.6038C255.862 45.4822 255.399 45.352 254.968 45.2135C254.545 45.0615 254.16 44.8814 253.812 44.6731C253.465 44.4649 253.154 44.2093 252.881 43.9063C252.617 43.5899 252.401 43.1997 252.233 42.7358C251.906 41.8331 252.003 41.1016 252.522 40.5413C253.036 39.9685 253.899 39.6424 255.11 39.5631C255.722 39.5229 256.328 39.541 256.927 39.6172C257.522 39.6809 257.978 39.7537 258.293 39.8357L258.521 41.7076C258.214 41.6122 257.839 41.5341 257.394 41.4734C256.946 41.4001 256.449 41.3813 255.903 41.4171C255.411 41.4494 255.041 41.557 254.794 41.7401C254.543 41.9106 254.476 42.1588 254.594 42.4848C254.653 42.6478 254.731 42.7903 254.83 42.9121C254.942 43.0332 255.091 43.1453 255.279 43.2485C255.461 43.3393 255.693 43.4332 255.973 43.5303C256.249 43.6149 256.58 43.7023 256.967 43.7925C257.612 43.9556 258.17 44.1244 258.641 44.2988C259.109 44.4607 259.514 44.6588 259.857 44.893C260.21 45.1138 260.502 45.377 260.736 45.6826C260.969 45.9882 261.165 46.3604 261.324 46.7992C261.664 47.7395 261.55 48.4786 260.982 49.0164C260.422 49.5408 259.457 49.848 258.087 49.9378C257.169 49.9979 256.403 49.9711 255.79 49.8573C255.181 49.756 254.748 49.6689 254.49 49.5959L254.222 47.669C254.631 47.7833 255.104 47.8871 255.642 47.9802C256.193 48.0724 256.788 48.0976 257.426 48.0558ZM266.548 47.4579C267.186 47.4161 267.627 47.3166 267.87 47.1595C268.108 46.9899 268.164 46.7295 268.037 46.3785C267.919 46.0525 267.661 45.7934 267.265 45.6011C266.882 45.4081 266.286 45.2097 265.477 45.006C264.983 44.8843 264.521 44.7542 264.089 44.6156C263.666 44.4636 263.281 44.2835 262.933 44.0753C262.586 43.867 262.275 43.6114 262.002 43.3084C261.738 42.992 261.522 42.6019 261.354 42.138C261.027 41.2353 261.124 40.5038 261.643 39.9435C262.157 39.3707 263.02 39.0446 264.231 38.9652C264.843 38.9251 265.449 38.9432 266.048 39.0194C266.643 39.0831 267.099 39.1559 267.414 39.2379L267.642 41.1097C267.335 41.0143 266.96 40.9363 266.516 40.8755C266.067 40.8023 265.57 40.7835 265.024 40.8193C264.532 40.8515 264.162 40.9592 263.915 41.1422C263.664 41.3128 263.597 41.561 263.715 41.887C263.774 42.05 263.852 42.1924 263.951 42.3143C264.063 42.4353 264.212 42.5475 264.4 42.6507C264.582 42.7414 264.814 42.8354 265.094 42.9325C265.37 43.0171 265.701 43.1045 266.088 43.1947C266.733 43.3578 267.291 43.5266 267.762 43.701C268.23 43.8629 268.635 44.061 268.979 44.2952C269.331 44.5159 269.624 44.7791 269.857 45.0847C270.09 45.3903 270.286 45.7625 270.445 46.2014C270.785 47.1417 270.671 47.8808 270.103 48.4186C269.543 48.943 268.578 49.2501 267.208 49.34C266.29 49.4001 265.524 49.3733 264.911 49.2595C264.302 49.1582 263.869 49.0711 263.611 48.9981L263.343 47.0711C263.752 47.1855 264.226 47.2893 264.763 47.3824C265.314 47.4746 265.909 47.4998 266.548 47.4579ZM272.617 33.7949C273.176 33.7582 273.686 33.7761 274.148 33.8485C274.606 33.9084 274.954 33.969 275.195 34.0302L275.416 35.941C275.153 35.8555 274.858 35.7915 274.529 35.7488C274.214 35.7053 273.883 35.6949 273.537 35.7176C273.151 35.7429 272.846 35.8207 272.621 35.951C272.391 36.0687 272.23 36.2268 272.138 36.4254C272.047 36.6239 272.018 36.8633 272.051 37.1435C272.08 37.4111 272.151 37.7017 272.264 38.0151L272.502 38.6734L276.294 38.4248L276.981 40.3243L273.19 40.5729L276.061 48.5094L273.646 48.6677L269.836 38.1358C269.378 36.8695 269.372 35.8558 269.818 35.095C270.26 34.3215 271.193 33.8882 272.617 33.7949ZM290.09 47.2819C289.665 47.4252 289.1 47.5778 288.396 47.7394C287.696 47.9137 286.901 48.03 286.009 48.0884C285.171 48.1433 284.425 48.0767 283.771 47.8885C283.131 47.6995 282.565 47.4157 282.074 47.0371C281.596 46.6577 281.184 46.197 280.838 45.6549C280.488 45.1003 280.193 44.4907 279.952 43.8262L277.958 38.3158L280.373 38.1575L282.238 43.3106C282.619 44.3638 283.05 45.1056 283.533 45.536C284.029 45.9656 284.683 46.1538 285.494 46.1006C285.787 46.0814 286.089 46.0488 286.399 46.0028C286.722 45.9559 286.957 45.9084 287.103 45.8604L284.225 37.905L286.64 37.7468L290.09 47.2819ZM296.972 47.3313C296.249 47.3659 295.623 47.3299 295.094 47.2234C294.579 47.116 294.136 46.9461 293.766 46.7136C293.391 46.4686 293.076 46.162 292.82 45.7937C292.573 45.412 292.361 44.9767 292.184 44.4877L288.088 33.1659L290.367 32.6315L294.443 43.8968C294.542 44.1727 294.646 44.4033 294.754 44.5888C294.875 44.7734 295.021 44.9307 295.191 45.0608C295.356 45.1783 295.552 45.2681 295.778 45.3303C296.014 45.379 296.298 45.4117 296.631 45.4284L296.972 47.3313ZM302.897 46.943C302.174 46.9776 301.548 46.9416 301.019 46.8351C300.504 46.7277 300.061 46.5577 299.691 46.3253C299.316 46.0803 299.001 45.7737 298.745 45.4054C298.498 45.0237 298.286 44.5883 298.109 44.0994L294.013 32.7776L296.292 32.2432L300.367 43.5085C300.467 43.7844 300.571 44.015 300.679 44.2004C300.8 44.385 300.946 44.5424 301.115 44.6724C301.28 44.79 301.476 44.8798 301.703 44.9419C301.939 44.9907 302.223 45.0234 302.556 45.0401L302.897 46.943ZM310.085 36.2101C310.359 40.017 310.333 43.4843 310.007 46.6118C309.945 47.1934 309.847 47.694 309.713 48.1135C309.578 48.5331 309.386 48.8858 309.135 49.1718C308.885 49.4578 308.567 49.6711 308.182 49.8119C307.802 49.9651 307.332 50.0601 306.773 50.0967C306.401 50.1211 306.015 50.1079 305.615 50.0571C305.228 50.0054 304.926 49.9418 304.708 49.8663L304.487 48.0132C305.03 48.1574 305.534 48.2142 305.999 48.1836C306.625 48.1427 307.058 47.9666 307.3 47.6556C307.559 47.3562 307.715 46.9032 307.768 46.2964C306.511 44.967 305.235 43.5104 303.94 41.9267C302.658 40.3421 301.414 38.6524 300.206 36.8576L302.78 36.6888C303.104 37.2067 303.47 37.7667 303.878 38.3689C304.3 38.9702 304.74 39.5831 305.198 40.2077C305.651 40.8198 306.117 41.431 306.596 42.0413C307.076 42.6517 307.54 43.2181 307.988 43.7407C308.01 42.5969 307.98 41.3859 307.899 40.1077C307.813 38.8169 307.71 37.5722 307.59 36.3736L310.085 36.2101ZM177.24 85.1173C176.202 85.1853 175.217 85.0959 174.283 84.8491C173.349 84.6022 172.492 84.2092 171.711 83.6699C170.926 83.1181 170.228 82.4323 169.618 81.6123C169.008 80.7923 168.506 79.8369 168.111 78.7461C167.717 77.6553 167.54 76.6785 167.582 75.8158C167.638 74.9522 167.867 74.212 168.27 73.5951C168.669 72.9657 169.227 72.4735 169.943 72.1186C170.659 71.7636 171.489 71.5551 172.434 71.4932C173.006 71.4557 173.54 71.4656 174.038 71.5228C174.531 71.5675 174.968 71.6287 175.351 71.7063C175.733 71.784 176.057 71.8718 176.324 71.9698C176.591 72.0678 176.78 72.1389 176.892 72.1829L176.854 74.1684C176.467 74.0013 175.944 73.8558 175.287 73.7321C174.638 73.5949 173.967 73.549 173.275 73.5944C172.677 73.6336 172.154 73.7705 171.708 74.0052C171.257 74.2272 170.909 74.5453 170.664 74.9592C170.432 75.3723 170.316 75.8805 170.316 76.4837C170.317 77.087 170.458 77.7773 170.739 78.5546C170.988 79.2442 171.297 79.8721 171.666 80.4384C172.047 81.0038 172.488 81.4883 172.988 81.892C173.484 82.283 174.041 82.5802 174.659 82.7836C175.273 82.9744 175.953 83.0454 176.698 82.9965C177.589 82.9381 178.285 82.8091 178.784 82.6095C179.28 82.3973 179.653 82.206 179.905 82.0355L181.284 83.9281C181.161 84.0389 180.978 84.1536 180.734 84.2722C180.505 84.3899 180.222 84.5112 179.885 84.6359C179.545 84.7481 179.15 84.8445 178.703 84.9252C178.26 85.0184 177.772 85.0824 177.24 85.1173ZM186.728 76.2359C186.506 76.1863 186.204 76.1419 185.822 76.1028C185.449 76.0502 185.03 76.0392 184.564 76.0697C184.298 76.0872 184.021 76.131 183.733 76.2012C183.458 76.2705 183.268 76.3279 183.162 76.3734L186.013 84.2535L183.598 84.4118L180.21 75.0459C180.616 74.8524 181.141 74.664 181.783 74.4808C182.433 74.2841 183.184 74.1578 184.036 74.102C184.196 74.0916 184.386 74.0919 184.608 74.103C184.826 74.1016 185.048 74.1127 185.274 74.1364C185.496 74.1475 185.716 74.1716 185.934 74.2087C186.147 74.2332 186.32 74.2604 186.453 74.2901L186.728 76.2359ZM189.306 79.0511C188.993 78.186 188.852 77.4188 188.882 76.7493C188.926 76.0791 189.096 75.5159 189.394 75.06C189.688 74.5915 190.089 74.2315 190.597 73.98C191.101 73.716 191.659 73.5639 192.271 73.5238C193.708 73.4296 194.977 73.7764 196.08 74.5641C197.195 75.3509 198.055 76.5781 198.658 78.2457C198.703 78.3711 198.749 78.5157 198.794 78.6795C198.849 78.83 198.892 78.9684 198.924 79.0946L192.039 79.5459C192.391 80.3314 192.906 80.9266 193.584 81.3314C194.27 81.7228 195.112 81.8858 196.11 81.8204C196.696 81.7821 197.21 81.697 197.652 81.5653C198.108 81.4328 198.456 81.3009 198.694 81.1697L199.687 83.0107C199.577 83.0821 199.416 83.1633 199.203 83.2542C199 83.3317 198.754 83.4056 198.466 83.4758C198.196 83.5577 197.895 83.6287 197.563 83.689C197.23 83.7493 196.885 83.7912 196.525 83.8148C195.607 83.8749 194.764 83.8019 193.994 83.5956C193.221 83.3768 192.533 83.0561 191.93 82.6335C191.323 82.1984 190.802 81.6806 190.367 81.0802C189.927 80.4672 189.574 79.7909 189.306 79.0511ZM195.944 77.5764C195.83 77.263 195.677 76.9714 195.484 76.7017C195.287 76.4194 195.059 76.1841 194.8 75.9957C194.55 75.7939 194.271 75.6453 193.964 75.5499C193.666 75.441 193.337 75.3984 192.978 75.422C192.606 75.4464 192.305 75.5367 192.075 75.6929C191.841 75.8366 191.663 76.0216 191.54 76.2478C191.431 76.4732 191.373 76.7272 191.367 77.0101C191.36 77.2929 191.389 77.5798 191.453 77.8708L195.944 77.5764ZM206.142 81.2977C206.887 81.2488 207.439 81.1741 207.798 81.0736L206.886 78.5535C206.739 78.5246 206.533 78.4996 206.267 78.4786C206 78.4575 205.714 78.4571 205.408 78.4771C205.142 78.4946 204.876 78.5312 204.61 78.5872C204.358 78.6422 204.136 78.7273 203.946 78.8424C203.77 78.9567 203.649 79.1122 203.584 79.309C203.515 79.4933 203.53 79.7233 203.629 79.9991C203.825 80.5383 204.14 80.9026 204.577 81.0922C205.008 81.2693 205.53 81.3378 206.142 81.2977ZM202.874 72.8288C203.672 72.7765 204.378 72.8265 204.992 72.9788C205.605 73.1311 206.133 73.3661 206.575 73.6837C207.03 74.0004 207.412 74.3989 207.722 74.8791C208.041 75.346 208.305 75.8678 208.513 76.4445L210.67 82.4063C210.325 82.506 209.791 82.6308 209.069 82.7808C208.365 82.9425 207.541 83.0543 206.596 83.1162C205.971 83.1572 205.378 83.1383 204.818 83.0594C204.259 82.9806 203.747 82.828 203.284 82.6017C202.834 82.3745 202.43 82.0672 202.072 81.68C201.727 81.2918 201.448 80.8031 201.235 80.2138C201.031 79.6496 200.972 79.1658 201.057 78.7623C201.156 78.3579 201.362 78.0235 201.675 77.7591C201.983 77.4822 202.379 77.2766 202.861 77.1423C203.353 76.9946 203.885 76.9019 204.457 76.8645C204.723 76.847 205.009 76.8475 205.315 76.8659C205.617 76.8718 205.948 76.9015 206.308 76.9549L206.172 76.5788C206.076 76.3155 205.952 76.0669 205.8 75.833C205.647 75.5992 205.452 75.4001 205.216 75.2359C204.988 75.0583 204.717 74.9285 204.401 74.8466C204.098 74.7637 203.741 74.7358 203.329 74.7628C202.77 74.7994 202.271 74.8706 201.833 74.9764C201.394 75.0821 201.047 75.1947 200.79 75.3142L199.824 73.4908C200.094 73.3704 200.503 73.2409 201.052 73.1022C201.602 72.9635 202.209 72.8724 202.874 72.8288ZM209.092 70.0146L211.371 69.4802L212.446 72.4517L216.158 72.2084L216.845 74.1079L213.133 74.3512L214.582 78.3571C214.868 79.147 215.205 79.7025 215.594 80.0236C215.982 80.3447 216.496 80.4843 217.135 80.4424C217.574 80.4136 217.944 80.3445 218.244 80.2349C218.559 80.1245 218.802 80.0251 218.974 79.9368L220.027 81.7161C219.788 81.8472 219.463 81.9841 219.051 82.1266C218.644 82.2816 218.135 82.3792 217.523 82.4193C216.778 82.4681 216.119 82.4151 215.545 82.2601C214.985 82.1043 214.495 81.8605 214.075 81.5286C213.651 81.1842 213.288 80.7651 212.987 80.2715C212.681 79.7653 212.41 79.1862 212.174 78.5342L209.092 70.0146ZM219.534 77.0699C219.221 76.2048 219.08 75.4375 219.11 74.7681C219.154 74.0978 219.324 73.5347 219.623 73.0788C219.916 72.6103 220.317 72.2503 220.825 71.9988C221.329 71.7347 221.887 71.5826 222.499 71.5425C223.936 71.4483 225.206 71.7951 226.308 72.5828C227.423 73.3697 228.283 74.5969 228.886 76.2644C228.931 76.3898 228.977 76.5344 229.023 76.6983C229.077 76.8487 229.12 76.9871 229.152 77.1133L222.267 77.5646C222.619 78.3502 223.134 78.9453 223.812 79.3502C224.498 79.7416 225.341 79.9046 226.338 79.8392C226.924 79.8008 227.438 79.7158 227.881 79.5841C228.337 79.4515 228.684 79.3196 228.922 79.1885L229.915 81.0294C229.805 81.1008 229.644 81.182 229.431 81.2729C229.228 81.3505 228.982 81.4243 228.694 81.4945C228.424 81.5764 228.123 81.6475 227.791 81.7078C227.459 81.7681 227.113 81.81 226.754 81.8335C225.836 81.8937 224.992 81.8206 224.223 81.6143C223.449 81.3955 222.761 81.0748 222.158 80.6522C221.551 80.2171 221.03 79.6993 220.595 79.0989C220.156 78.486 219.802 77.8096 219.534 77.0699ZM226.172 75.5952C226.058 75.2817 225.905 74.9901 225.712 74.7204C225.515 74.4381 225.287 74.2028 225.028 74.0144C224.778 73.8126 224.499 73.664 224.192 73.5686C223.894 73.4598 223.566 73.4172 223.206 73.4407C222.834 73.4651 222.533 73.5554 222.303 73.7117C222.069 73.8554 221.891 74.0403 221.768 74.2666C221.659 74.4919 221.601 74.746 221.595 75.0288C221.588 75.3116 221.617 75.5985 221.681 75.8895L226.172 75.5952ZM233.383 76.0852C233.746 77.0882 234.285 77.8615 234.999 78.4052C235.709 78.9362 236.509 79.1725 237.4 79.1141C237.786 79.0888 238.108 79.0549 238.365 79.0124C238.631 78.9565 238.843 78.904 239.003 78.8551L236.961 73.213C236.698 73.089 236.367 72.9824 235.967 72.8931C235.576 72.7904 235.18 72.7521 234.781 72.7783C233.903 72.8359 233.36 73.1603 233.152 73.7515C232.957 74.3419 233.034 75.1198 233.383 76.0852ZM241.989 80.2766C241.56 80.4459 241 80.611 240.309 80.7718C239.631 80.9317 238.893 81.0378 238.095 81.0902C237.27 81.1442 236.489 81.0735 235.75 80.878C235.012 80.6825 234.331 80.3806 233.707 79.9723C233.091 79.5506 232.543 79.0346 232.064 78.4243C231.593 77.8005 231.215 77.0937 230.929 76.3038C230.648 75.5265 230.493 74.8178 230.466 74.1778C230.448 73.5244 230.556 72.959 230.792 72.4814C231.028 72.0039 231.389 71.6273 231.875 71.3516C232.356 71.0633 232.969 70.8948 233.714 70.8459C234.22 70.8128 234.686 70.84 235.113 70.9275C235.539 71.0151 235.917 71.1187 236.247 71.2383L234.539 66.5177L236.818 65.9833L241.989 80.2766Z" fill="#959595"/>
<circle cx="48" cy="48" r="48" transform="matrix(0.997859 -0.0654031 0.340215 0.940348 171.172 120.844)" fill="#34C636"/>
<g clip-path="url(#clip0_1109_290)">
<path d="M255.389 158.797L256.015 160.527C257.48 164.583 257.514 168.621 256.112 172.038C254.711 175.455 251.948 178.068 248.237 179.489C244.526 180.909 240.066 181.06 235.52 179.919C230.975 178.779 226.588 176.407 223.015 173.158C219.442 169.909 216.873 165.958 215.692 161.892C214.511 157.827 214.781 153.866 216.462 150.6C218.143 147.333 221.144 144.937 225.019 143.768C228.893 142.599 233.433 142.72 237.961 144.113" stroke="white" stroke-width="5" stroke-linecap="round" stroke-linejoin="round"/>
<path d="M250.571 145.482L237.425 165.616L229.397 160.366" stroke="white" stroke-width="5" stroke-linecap="round" stroke-linejoin="round"/>
</g>
<path d="M226.994 274.975L227.587 276.615L224.186 276.838L227.365 285.624L225.338 285.757L222.159 276.971L218.758 277.193L218.165 275.553L226.994 274.975ZM234.04 283.878C234.636 283.838 235.078 283.779 235.365 283.698L234.635 281.682C234.518 281.659 234.353 281.639 234.14 281.622C233.927 281.605 233.698 281.605 233.453 281.621C233.24 281.635 233.027 281.664 232.814 281.709C232.612 281.753 232.436 281.821 232.284 281.913C232.142 282.005 232.046 282.129 231.994 282.287C231.938 282.434 231.95 282.618 232.03 282.839C232.186 283.27 232.439 283.562 232.788 283.713C233.133 283.855 233.551 283.91 234.04 283.878ZM231.426 277.102C232.064 277.061 232.629 277.101 233.12 277.222C233.611 277.344 234.033 277.532 234.386 277.786C234.75 278.04 235.056 278.359 235.304 278.743C235.559 279.116 235.77 279.534 235.937 279.995L237.663 284.764C237.386 284.844 236.96 284.944 236.382 285.064C235.818 285.193 235.159 285.283 234.403 285.332C233.903 285.365 233.429 285.35 232.981 285.287C232.533 285.224 232.124 285.102 231.754 284.921C231.394 284.739 231.07 284.493 230.784 284.183C230.508 283.873 230.285 283.482 230.114 283.01C229.951 282.559 229.904 282.172 229.972 281.849C230.051 281.526 230.216 281.258 230.466 281.047C230.713 280.825 231.03 280.661 231.416 280.553C231.809 280.435 232.234 280.361 232.692 280.331C232.905 280.317 233.134 280.317 233.379 280.332C233.62 280.337 233.885 280.361 234.173 280.403L234.064 280.102C233.988 279.892 233.888 279.693 233.766 279.506C233.644 279.319 233.488 279.16 233.299 279.028C233.117 278.886 232.9 278.782 232.647 278.717C232.405 278.65 232.119 278.628 231.789 278.65C231.342 278.679 230.943 278.736 230.593 278.821C230.242 278.905 229.964 278.995 229.759 279.091L228.986 277.632C229.202 277.536 229.529 277.432 229.968 277.321C230.408 277.21 230.893 277.137 231.426 277.102ZM240.289 279.864C240.447 279.607 240.615 279.334 240.794 279.045C240.969 278.746 241.141 278.453 241.309 278.164C241.473 277.866 241.627 277.584 241.771 277.318C241.921 277.041 242.047 276.802 242.148 276.6L244.432 276.45C244.103 277.047 243.749 277.666 243.371 278.306C243.003 278.947 242.624 279.572 242.235 280.183C242.645 280.413 243.091 280.697 243.573 281.035C244.051 281.363 244.528 281.717 245.003 282.096C245.478 282.476 245.932 282.857 246.365 283.239C246.797 283.622 247.171 283.977 247.486 284.305L245.251 284.452C244.947 284.154 244.605 283.842 244.226 283.518C243.858 283.193 243.472 282.879 243.069 282.577C242.665 282.275 242.264 281.993 241.864 281.732C241.461 281.461 241.079 281.234 240.719 281.052L242.026 284.663L240.094 284.79L235.979 273.416L237.802 272.988L240.289 279.864ZM246.64 280.372C246.39 279.68 246.277 279.066 246.301 278.53C246.336 277.994 246.473 277.544 246.711 277.179C246.946 276.804 247.267 276.516 247.673 276.315C248.076 276.104 248.523 275.982 249.012 275.95C250.162 275.874 251.177 276.152 252.059 276.782C252.952 277.411 253.639 278.393 254.122 279.727C254.158 279.828 254.195 279.943 254.231 280.074C254.275 280.195 254.309 280.305 254.335 280.406L248.827 280.767C249.109 281.396 249.521 281.872 250.063 282.196C250.612 282.509 251.285 282.639 252.084 282.587C252.552 282.556 252.963 282.488 253.317 282.383C253.682 282.277 253.96 282.171 254.151 282.067L254.945 283.539C254.857 283.596 254.728 283.661 254.558 283.734C254.395 283.796 254.199 283.855 253.969 283.911C253.752 283.977 253.512 284.034 253.246 284.082C252.98 284.13 252.703 284.164 252.416 284.183C251.681 284.231 251.006 284.172 250.391 284.007C249.772 283.832 249.222 283.576 248.74 283.238C248.254 282.889 247.837 282.475 247.489 281.995C247.137 281.505 246.855 280.963 246.64 280.372ZM251.95 279.192C251.86 278.941 251.737 278.708 251.583 278.492C251.425 278.266 251.242 278.078 251.035 277.927C250.835 277.766 250.612 277.647 250.367 277.571C250.128 277.484 249.865 277.449 249.578 277.468C249.28 277.488 249.039 277.56 248.856 277.685C248.668 277.8 248.526 277.948 248.428 278.129C248.34 278.309 248.294 278.513 248.289 278.739C248.284 278.965 248.307 279.195 248.358 279.427L251.95 279.192ZM264.622 278.947C264.324 278.124 263.998 277.54 263.644 277.193C263.297 276.836 262.825 276.677 262.229 276.716C262.016 276.73 261.788 276.76 261.543 276.807C261.298 276.854 261.116 276.892 260.995 276.92L263.293 283.269L261.361 283.396L258.606 275.783C258.943 275.658 259.392 275.531 259.956 275.402C260.53 275.272 261.152 275.185 261.823 275.141C262.397 275.103 262.891 275.143 263.304 275.259C263.727 275.375 264.103 275.541 264.431 275.755C264.519 275.668 264.638 275.573 264.786 275.47C264.934 275.368 265.107 275.275 265.305 275.19C265.5 275.095 265.71 275.014 265.937 274.948C266.174 274.881 266.421 274.84 266.676 274.823C267.326 274.78 267.89 274.836 268.371 274.989C268.858 275.132 269.277 275.356 269.627 275.661C269.985 275.956 270.288 276.327 270.536 276.772C270.792 277.207 271.015 277.691 271.208 278.222L272.808 282.646L270.876 282.772L269.379 278.635C269.082 277.812 268.761 277.228 268.418 276.88C268.071 276.523 267.594 276.365 266.987 276.404C266.678 276.425 266.404 276.494 266.163 276.612C265.919 276.721 265.744 276.825 265.639 276.924C265.814 277.169 265.969 277.431 266.103 277.71C266.236 277.989 266.361 278.288 266.477 278.609L268.05 282.958L266.119 283.084L264.622 278.947ZM273.302 278.624C273.052 277.932 272.938 277.318 272.963 276.783C272.997 276.247 273.134 275.796 273.373 275.431C273.607 275.056 273.928 274.768 274.335 274.567C274.738 274.356 275.184 274.234 275.674 274.202C276.823 274.127 277.839 274.404 278.721 275.035C279.613 275.664 280.301 276.646 280.783 277.98C280.82 278.08 280.856 278.196 280.893 278.327C280.936 278.447 280.971 278.558 280.996 278.659L275.488 279.02C275.77 279.648 276.182 280.125 276.724 280.448C277.273 280.762 277.947 280.892 278.745 280.84C279.214 280.809 279.625 280.741 279.979 280.636C280.344 280.529 280.622 280.424 280.812 280.319L281.607 281.792C281.519 281.849 281.39 281.914 281.22 281.987C281.057 282.049 280.86 282.108 280.63 282.164C280.414 282.229 280.173 282.286 279.907 282.334C279.641 282.383 279.365 282.416 279.077 282.435C278.343 282.483 277.668 282.425 277.053 282.26C276.434 282.085 275.883 281.828 275.401 281.49C274.916 281.142 274.499 280.728 274.151 280.247C273.799 279.757 273.516 279.216 273.302 278.624ZM278.612 277.444C278.521 277.194 278.399 276.96 278.244 276.745C278.086 276.519 277.904 276.331 277.697 276.18C277.497 276.018 277.274 275.899 277.028 275.823C276.79 275.736 276.527 275.702 276.24 275.721C275.942 275.74 275.701 275.813 275.517 275.938C275.33 276.053 275.187 276.201 275.089 276.382C275.002 276.562 274.956 276.765 274.95 276.991C274.945 277.218 274.968 277.447 275.02 277.68L278.612 277.444ZM292.057 270.71L292.651 272.35L289.25 272.573L292.429 281.36L290.401 281.493L287.222 272.706L283.821 272.929L283.228 271.289L292.057 270.71ZM302.521 276.663C302.746 277.285 302.855 277.858 302.848 278.382C302.842 278.906 302.728 279.36 302.508 279.744C302.287 280.128 301.963 280.437 301.535 280.67C301.118 280.903 300.612 281.039 300.016 281.078C299.419 281.117 298.84 281.052 298.278 280.884C297.716 280.715 297.194 280.462 296.712 280.124C296.23 279.786 295.796 279.368 295.408 278.87C295.032 278.371 294.731 277.81 294.506 277.188C294.281 276.566 294.173 275.998 294.183 275.484C294.201 274.959 294.319 274.505 294.54 274.121C294.771 273.736 295.097 273.432 295.518 273.21C295.935 272.977 296.436 272.841 297.022 272.803C297.607 272.765 298.181 272.83 298.743 272.998C299.312 273.156 299.838 273.404 300.32 273.742C300.802 274.08 301.231 274.499 301.608 274.998C301.991 275.486 302.296 276.041 302.521 276.663ZM300.541 276.793C300.258 276.01 299.854 275.405 299.328 274.978C298.81 274.539 298.232 274.341 297.593 274.383C296.955 274.425 296.538 274.688 296.343 275.173C296.155 275.648 296.202 276.276 296.485 277.058C296.772 277.851 297.175 278.466 297.693 278.905C298.222 279.342 298.805 279.54 299.444 279.498C300.083 279.456 300.494 279.193 300.678 278.709C300.873 278.224 300.827 277.585 300.541 276.793ZM312.699 279.785C312.359 279.899 311.908 280.021 311.344 280.151C310.785 280.29 310.148 280.383 309.435 280.43C308.764 280.474 308.168 280.421 307.645 280.27C307.132 280.119 306.68 279.892 306.287 279.589C305.905 279.285 305.575 278.917 305.298 278.483C305.018 278.039 304.782 277.552 304.589 277.02L302.994 272.612L304.926 272.485L306.418 276.608C306.722 277.45 307.068 278.044 307.454 278.388C307.851 278.732 308.374 278.882 309.023 278.84C309.257 278.824 309.498 278.798 309.747 278.761C310.005 278.724 310.193 278.686 310.31 278.648L308.007 272.283L309.939 272.157L312.699 279.785ZM317.749 273.324C317.572 273.284 317.33 273.248 317.024 273.217C316.726 273.175 316.39 273.166 316.018 273.191C315.805 273.205 315.583 273.24 315.353 273.296C315.133 273.351 314.981 273.397 314.896 273.434L317.177 279.738L315.245 279.864L312.534 272.372C312.86 272.217 313.279 272.066 313.793 271.919C314.313 271.762 314.914 271.661 315.595 271.616C315.723 271.608 315.876 271.608 316.053 271.617C316.227 271.616 316.405 271.625 316.586 271.644C316.763 271.653 316.939 271.672 317.114 271.702C317.284 271.721 317.423 271.743 317.529 271.767L317.749 273.324Z" fill="#0046FE"/>
<path d="M330.496 278.865L333.784 273.836L327.094 269.461" stroke="#0046FE" stroke-width="2" stroke-linecap="round" stroke-linejoin="round"/>
</g>
<defs>
<filter id="filter0_d_1109_290" x="0.536407" y="1.00928" width="474.15" height="355.889" filterUnits="userSpaceOnUse" color-interpolation-filters="sRGB">
<feFlood flood-opacity="0" result="BackgroundImageFix"/>
<feColorMatrix in="SourceAlpha" type="matrix" values="0 0 0 0 0 0 0 0 0 0 0 0 0 0 0 0 0 0 127 0" result="hardAlpha"/>
<feOffset dy="10"/>
<feGaussianBlur stdDeviation="5"/>
<feComposite in2="hardAlpha" operator="out"/>
<feColorMatrix type="matrix" values="0 0 0 0 0 0 0 0 0 0 0 0 0 0 0 0 0 0 0.1 0"/>
<feBlend mode="normal" in2="BackgroundImageFix" result="effect1_dropShadow_1109_290"/>
<feBlend mode="normal" in="SourceGraphic" in2="effect1_dropShadow_1109_290" result="shape"/>
</filter>
<clipPath id="clip0_1109_290">
<rect width="48" height="48" fill="white" transform="matrix(0.997859 -0.0654031 0.340215 0.940348 203.944 140.837)"/>
</clipPath>
</defs>
</svg>
