<svg width="220" height="220" viewBox="0 0 220 220" fill="none" xmlns="http://www.w3.org/2000/svg">
<path d="M196.155 111.398L211.803 112.668L211.328 118.524C211.235 119.67 210.966 120.606 210.523 121.33C210.088 122.056 209.544 122.58 208.89 122.903C208.245 123.227 207.557 123.36 206.827 123.3C205.929 123.227 205.169 122.915 204.545 122.363C203.929 121.819 203.54 121.044 203.379 120.036C203.228 120.667 202.954 121.209 202.558 121.662C202.169 122.124 201.706 122.471 201.169 122.703C200.64 122.936 200.085 123.029 199.503 122.982C198.972 122.939 198.46 122.805 197.968 122.581C197.476 122.366 197.043 122.034 196.669 121.585C196.296 121.137 196.017 120.558 195.832 119.849C195.647 119.14 195.596 118.275 195.679 117.254L196.155 111.398ZM197.691 113.479L197.376 117.366C197.279 118.554 197.459 119.426 197.916 119.981C198.372 120.545 198.99 120.858 199.771 120.922C200.56 120.986 201.214 120.755 201.733 120.228C202.261 119.702 202.569 118.891 202.658 117.795L202.974 113.908L197.691 113.479ZM209.976 114.476L204.643 114.043L204.332 117.881C204.253 118.852 204.427 119.644 204.854 120.256C205.288 120.876 205.942 121.222 206.814 121.293C207.628 121.359 208.286 121.128 208.789 120.6C209.291 120.081 209.582 119.327 209.662 118.338L209.976 114.476Z" fill="white"/>
<path d="M195.068 124.222L208.984 133.278L208.406 135.582L191.895 136.88L192.393 134.892L196.619 134.586L198.139 128.523L194.57 126.211L195.068 124.222ZM199.497 129.379L198.22 134.471L206.4 133.816L199.497 129.379Z" fill="white"/>
<path d="M188.638 143.965C189.187 142.695 189.976 141.738 191.008 141.095C192.047 140.454 193.24 140.129 194.587 140.121C195.942 140.116 197.369 140.437 198.868 141.085C200.467 141.775 201.698 142.624 202.561 143.632C203.42 144.648 203.93 145.739 204.088 146.906C204.251 148.084 204.082 149.254 203.58 150.417C202.916 151.955 201.996 153.024 200.82 153.623C199.649 154.234 198.371 154.449 196.988 154.269L197.43 152.173C198.454 152.261 199.372 152.09 200.184 151.66C201 151.241 201.597 150.595 201.973 149.723C202.3 148.966 202.384 148.172 202.226 147.341C202.072 146.521 201.65 145.731 200.962 144.971C200.274 144.21 199.298 143.558 198.036 143.013C196.888 142.517 195.801 142.229 194.774 142.149C193.743 142.076 192.838 142.239 192.057 142.637C191.274 143.043 190.677 143.72 190.268 144.669C189.776 145.809 189.692 146.844 190.016 147.774C190.338 148.711 190.996 149.395 191.99 149.824L191.148 151.775C190.115 151.329 189.33 150.709 188.793 149.914C188.263 149.122 187.984 148.212 187.957 147.184C187.925 146.163 188.153 145.09 188.638 143.965Z" fill="white"/>
<path d="M193.176 168.541L191.702 170.803L188.526 156.766L190.83 158.268L193.176 168.541ZM190.083 161.153L178.317 162.585L179.71 160.449L189.78 159.284L190.083 161.153ZM198.104 160.98L197.026 162.635L183.873 154.061L184.952 152.407L198.104 160.98Z" fill="white"/>
<path d="M187.001 176.372L176.509 167.103L171.874 172.349L170.6 171.223L176.526 164.516L188.292 174.911L187.001 176.372Z" fill="white"/>
<path d="M164.864 175.809C165.824 175.009 166.906 174.53 168.11 174.374C169.313 174.217 170.53 174.402 171.76 174.928C172.991 175.455 174.128 176.345 175.174 177.6C176.043 178.644 176.658 179.688 177.018 180.733C177.379 181.777 177.52 182.787 177.443 183.763C177.366 184.738 177.1 185.642 176.646 186.477C176.19 187.323 175.581 188.063 174.819 188.698C173.878 189.482 172.889 189.975 171.853 190.176C170.822 190.384 169.705 190.279 168.5 189.861L169.506 188.178C170.377 188.352 171.164 188.359 171.865 188.198C172.565 188.049 173.19 187.745 173.741 187.286C174.464 186.683 174.962 185.927 175.234 185.017C175.507 184.107 175.516 183.122 175.264 182.064C175.005 181.011 174.443 179.966 173.579 178.928C172.811 178.006 171.978 177.312 171.08 176.846C170.187 176.385 169.294 176.18 168.402 176.229C167.509 176.289 166.682 176.637 165.92 177.272C165.337 177.757 164.927 178.326 164.69 178.979C164.447 179.637 164.415 180.347 164.594 181.109C164.778 181.878 165.214 182.675 165.902 183.501L165.441 183.885C164.588 182.86 163.968 181.869 163.582 180.911C163.196 179.952 163.099 179.041 163.29 178.177C163.475 177.318 163.999 176.529 164.864 175.809ZM161.617 178.903L164.254 181.522L165.934 183.539L169.049 181.107L169.897 182.125L165.403 185.869L160.426 179.895L161.617 178.903Z" fill="white"/>
<path d="M157.109 182.153L164.945 195.758L160.201 198.491C158.648 199.385 157.26 199.689 156.038 199.403C154.812 199.128 153.852 198.387 153.157 197.181C152.471 195.99 152.314 194.791 152.687 193.586C153.058 192.392 154.019 191.348 155.572 190.453L158.626 188.694L155.42 183.127L157.109 182.153ZM149.484 186.545L156.939 190.474L155.098 191.534L147.296 187.805L149.484 186.545ZM159.312 189.886L156.388 191.57C155.37 192.157 154.74 192.851 154.5 193.653C154.257 194.466 154.366 195.273 154.828 196.075C155.302 196.898 155.935 197.404 156.726 197.592C157.51 197.785 158.39 197.601 159.365 197.039L162.419 195.28L159.312 189.886Z" fill="white"/>
<path d="M139.477 190.583C140.463 190.221 141.431 190.066 142.382 190.117C143.335 190.175 144.19 190.461 144.946 190.974C145.702 191.486 146.276 192.252 146.667 193.272L144.883 193.926C144.631 193.237 144.255 192.732 143.755 192.409C143.258 192.094 142.691 191.929 142.055 191.914C141.422 191.906 140.777 192.023 140.12 192.264C139.408 192.525 138.832 192.865 138.391 193.284C137.95 193.703 137.656 194.148 137.509 194.619C137.357 195.101 137.363 195.565 137.526 196.011C137.756 196.637 138.133 197.071 138.657 197.314C139.183 197.565 139.867 197.673 140.707 197.641L143.648 197.601C145.029 197.591 146.136 197.753 146.968 198.087C147.801 198.421 148.404 199.096 148.777 200.114C149.195 201.256 149.099 202.348 148.486 203.389C147.866 204.433 146.746 205.252 145.127 205.845C143.625 206.396 142.323 206.478 141.223 206.092C140.126 205.713 139.301 204.964 138.748 203.844L140.555 203.181C140.922 203.819 141.437 204.23 142.098 204.413C142.755 204.607 143.561 204.529 144.516 204.179C145.486 203.823 146.162 203.331 146.544 202.703C146.926 202.075 146.997 201.432 146.756 200.775C146.558 200.235 146.232 199.866 145.778 199.669C145.319 199.482 144.679 199.397 143.86 199.413L140.421 199.476C139.236 199.511 138.222 199.324 137.379 198.914C136.529 198.507 135.919 197.799 135.549 196.789C135.262 196.007 135.213 195.221 135.403 194.433C135.586 193.647 136.015 192.917 136.691 192.243C137.367 191.569 138.295 191.016 139.477 190.583Z" fill="white"/>
<path d="M126.615 201.307C126.723 202.007 126.57 202.65 126.155 203.238C125.732 203.826 125.146 204.179 124.397 204.295C123.647 204.411 122.97 204.255 122.363 203.826C121.757 203.398 121.4 202.833 121.291 202.133C121.181 201.425 121.352 200.787 121.803 200.22C122.256 199.66 122.857 199.322 123.607 199.206C124.356 199.09 125.02 199.235 125.597 199.643C126.168 200.061 126.507 200.615 126.615 201.307Z" fill="#34C636"/>
<path d="M111.204 196.387L110.538 212.073L104.668 211.823C103.519 211.775 102.574 211.543 101.832 211.127C101.091 210.721 100.546 210.197 100.198 209.557C99.8492 208.925 99.6905 208.242 99.7216 207.51C99.7598 206.61 100.043 205.838 100.571 205.194C101.09 204.557 101.85 204.139 102.851 203.939C102.214 203.812 101.662 203.559 101.194 203.181C100.718 202.81 100.353 202.361 100.1 201.833C99.8472 201.314 99.7329 200.762 99.7577 200.18C99.7803 199.647 99.894 199.13 100.099 198.63C100.295 198.13 100.61 197.684 101.044 197.294C101.477 196.904 102.045 196.603 102.746 196.39C103.447 196.178 104.31 196.094 105.334 196.138L111.204 196.387ZM109.184 198.003L105.287 197.837C104.096 197.787 103.232 198 102.695 198.478C102.149 198.955 101.86 199.585 101.827 200.368C101.793 201.158 102.049 201.803 102.595 202.302C103.141 202.809 103.963 203.086 105.062 203.132L108.959 203.298L109.184 198.003ZM108.661 210.317L108.888 204.971L105.041 204.808C104.067 204.767 103.283 204.971 102.688 205.421C102.085 205.879 101.764 206.545 101.727 207.42C101.693 208.236 101.949 208.885 102.495 209.367C103.034 209.848 103.798 210.11 104.789 210.152L108.661 210.317Z" fill="white"/>
<path d="M98.4407 195.796L89.9756 210.079L87.6497 209.598L85.6607 193.155L87.6683 193.57L88.1514 197.78L94.2721 199.045L96.4331 195.381L98.4407 195.796ZM93.4739 200.437L88.3325 199.375L89.33 207.52L93.4739 200.437Z" fill="white"/>
<path d="M78.3598 190.141C79.6513 190.637 80.6399 191.386 81.3257 192.391C82.0085 193.402 82.3817 194.581 82.4455 195.927C82.5063 197.28 82.2441 198.719 81.6588 200.244C81.0347 201.87 80.2369 203.135 79.2653 204.038C78.2859 204.939 77.2166 205.492 76.0572 205.699C74.8871 205.91 73.7107 205.789 72.5282 205.335C70.9644 204.735 69.8587 203.86 69.2111 202.71C68.5528 201.565 68.2851 200.297 68.4079 198.907L70.5208 199.263C70.4748 200.289 70.6834 201.2 71.1464 201.993C71.5987 202.792 72.2683 203.361 73.1552 203.701C73.9255 203.997 74.7224 204.049 75.5461 203.856C76.3591 203.668 77.1312 203.215 77.8624 202.496C78.5936 201.776 79.2056 200.775 79.6982 199.491C80.1462 198.324 80.3892 197.226 80.4273 196.196C80.4577 195.164 80.2579 194.266 79.8277 193.503C79.3898 192.737 78.6885 192.168 77.7238 191.798C76.5646 191.353 75.5271 191.312 74.6114 191.675C73.6879 192.034 73.032 192.72 72.6438 193.731L70.6599 192.97C71.063 191.919 71.6506 191.11 72.4226 190.54C73.1916 189.978 74.0894 189.662 75.1161 189.592C76.1349 189.519 77.2162 189.702 78.3598 190.141Z" fill="white"/>
<path d="M54.0908 195.704L51.7712 194.322L65.668 190.582L64.2606 192.945L54.0908 195.704ZM61.3474 192.315L59.4411 180.616L61.6319 181.921L63.2027 191.936L61.3474 192.315ZM61.8443 200.322L60.1475 199.312L68.1826 185.824L69.8793 186.834L61.8443 200.322Z" fill="white"/>
<path d="M46.0368 189.858L54.8789 179.004L49.4518 174.583L50.5254 173.265L57.4645 178.918L47.5486 191.09L46.0368 189.858Z" fill="white"/>
<path d="M45.7441 167.751C46.5819 168.678 47.1031 169.74 47.3077 170.937C47.5123 172.133 47.3763 173.356 46.8996 174.607C46.4229 175.857 45.5785 177.029 44.3663 178.124C43.3582 179.034 42.3395 179.69 41.3101 180.092C40.2807 180.494 39.2772 180.676 38.2997 180.638C37.3222 180.6 36.4076 180.371 35.5558 179.95C34.6922 179.528 33.9281 178.949 33.2635 178.214C32.4425 177.304 31.9106 176.336 31.6679 175.309C31.419 174.287 31.479 173.166 31.848 171.946L33.5703 172.884C33.4312 173.761 33.4561 174.547 33.6449 175.242C33.822 175.935 34.1507 176.548 34.6311 177.079C35.2622 177.778 36.0379 178.246 36.9581 178.481C37.8784 178.717 38.8622 178.687 39.9098 178.393C40.9517 178.092 41.9737 177.489 42.9756 176.584C43.8662 175.78 44.5265 174.919 44.9567 174.003C45.3807 173.093 45.5504 172.193 45.4659 171.303C45.3696 170.413 44.9891 169.6 44.3245 168.864C43.8162 168.302 43.2311 167.915 42.5693 167.704C41.9018 167.487 41.191 167.483 40.4369 167.693C39.6766 167.908 38.8976 168.376 38.0998 169.096L37.6976 168.651C38.6872 167.757 39.653 167.098 40.595 166.674C41.537 166.25 42.4436 166.116 43.3147 166.273C44.1803 166.423 44.9901 166.916 45.7441 167.751ZM42.5222 164.631L40.0108 167.37L38.0627 169.13L40.6173 172.145L39.634 173.033L35.7131 168.691L41.4833 163.48L42.5222 164.631Z" fill="white"/>
<path d="M39.1329 160.333L25.856 168.713L22.9339 164.083C21.9776 162.567 21.6178 161.193 21.8544 159.96C22.0796 158.724 22.7806 157.735 23.9574 156.992C25.1202 156.258 26.3114 156.053 27.5309 156.377C28.739 156.699 29.8211 157.617 30.7774 159.132L32.6587 162.113L38.0921 158.684L39.1329 160.333ZM34.4362 152.891L30.8125 160.5L29.6784 158.703L33.0885 150.756L34.4362 152.891ZM31.496 162.847L29.6947 159.993C29.0675 158.999 28.3485 158.399 27.5376 158.191C26.7152 157.981 25.9128 158.123 25.1306 158.616C24.3272 159.124 23.8473 159.776 23.6909 160.575C23.5301 161.366 23.7499 162.237 24.3504 163.189L26.2317 166.17L31.496 162.847Z" fill="white"/>
<path d="M29.9731 143.056C30.3749 144.026 30.57 144.987 30.5584 145.939C30.539 146.894 30.2888 147.76 29.8077 148.537C29.3265 149.313 28.5849 149.918 27.5827 150.351L26.8556 148.596C27.5331 148.315 28.0228 147.919 28.3245 147.406C28.6185 146.896 28.7601 146.323 28.7493 145.687C28.7307 145.055 28.5875 144.415 28.3197 143.768C28.0295 143.068 27.6659 142.506 27.229 142.082C26.7921 141.659 26.3353 141.384 25.8587 141.256C25.3711 141.124 24.9079 141.149 24.4691 141.331C23.8531 141.586 23.4347 141.981 23.2137 142.514C22.985 143.051 22.9044 143.738 22.9718 144.576L23.1329 147.513C23.1992 148.893 23.0827 150.005 22.7835 150.851C22.4843 151.696 21.8342 152.326 20.8334 152.741C19.7093 153.206 18.6145 153.155 17.5491 152.586C16.4804 152.009 15.616 150.924 14.9559 149.33C14.3437 147.852 14.208 146.555 14.5488 145.44C14.8819 144.328 15.5966 143.473 16.6927 142.874L17.4293 144.653C16.8073 145.046 16.4184 145.577 16.2625 146.246C16.0957 146.91 16.2068 147.712 16.5959 148.651C16.9913 149.606 17.5107 150.261 18.1542 150.617C18.7977 150.973 19.4428 151.017 20.0895 150.749C20.6207 150.529 20.9756 150.188 21.1542 149.726C21.3218 149.26 21.3806 148.618 21.3304 147.8L21.1261 144.366C21.0421 143.184 21.1875 142.163 21.5624 141.304C21.9341 140.437 22.6165 139.798 23.6097 139.387C24.3796 139.068 25.1625 138.988 25.9583 139.145C26.751 139.295 27.4979 139.693 28.1991 140.341C28.9003 140.989 29.4916 141.894 29.9731 143.056Z" fill="white"/>
<path d="M18.7183 130.655C18.0235 130.793 17.3741 130.667 16.7699 130.278C16.1641 129.88 15.7873 129.309 15.6395 128.565C15.4917 127.821 15.6193 127.137 16.0221 126.514C16.4249 125.89 16.9737 125.509 17.6685 125.371C18.3714 125.231 19.016 125.375 19.6021 125.802C20.1801 126.231 20.543 126.818 20.6908 127.561C20.8385 128.305 20.7208 128.974 20.3376 129.569C19.9447 130.157 19.4049 130.519 18.7183 130.655Z" fill="#34C636"/>
<path d="M23 115.21H7.3L7.3 109.335C7.3 108.185 7.49167 107.231 7.875 106.472C8.25 105.714 8.75 105.147 9.375 104.772C9.99167 104.397 10.6667 104.21 11.4 104.21C12.3 104.21 13.0833 104.46 13.75 104.96C14.4083 105.452 14.8583 106.193 15.1 107.185C15.2 106.543 15.4292 105.981 15.7875 105.497C16.1375 105.006 16.5708 104.622 17.0875 104.347C17.5958 104.072 18.1417 103.935 18.725 103.935C19.2583 103.935 19.7792 104.027 20.2875 104.21C20.7958 104.385 21.2542 104.681 21.6625 105.097C22.0708 105.514 22.3958 106.068 22.6375 106.76C22.8792 107.452 23 108.31 23 109.335V115.21ZM21.3 113.26V109.36C21.3 108.168 21.05 107.314 20.55 106.797C20.05 106.272 19.4083 106.01 18.625 106.01C17.8333 106.01 17.2 106.293 16.725 106.86C16.2417 107.427 16 108.26 16 109.36V113.26H21.3ZM8.975 113.26H14.325V109.41C14.325 108.435 14.0875 107.66 13.6125 107.085C13.1292 106.502 12.45 106.21 11.575 106.21C10.7583 106.21 10.1208 106.493 9.6625 107.06C9.20417 107.618 8.975 108.393 8.975 109.385V113.26Z" fill="white"/>
<path d="M23.0224 102.499L8.3965 94.6419L8.77883 92.2979L25.1232 89.6191L24.7932 91.6424L20.6074 92.3022L19.6013 98.4706L23.3524 100.476L23.0224 102.499ZM18.1767 97.7317L19.0218 92.5501L10.9257 93.8893L18.1767 97.7317Z" fill="white"/>
<path d="M27.7507 82.3126C27.3088 83.6235 26.6004 84.6422 25.6256 85.3689C24.6428 86.0929 23.4806 86.5146 22.1388 86.6339C20.7892 86.7506 19.3405 86.548 17.7927 86.0263C16.1423 85.47 14.8456 84.7251 13.9027 83.7917C12.9625 82.8504 12.3652 81.8048 12.1108 80.655C11.8512 79.4946 11.9237 78.3142 12.3283 77.1139C12.8633 75.5267 13.692 74.3858 14.8144 73.6912C15.9314 72.9861 17.1869 72.6662 18.5807 72.7315L18.3127 74.8573C17.2849 74.8538 16.3842 75.0998 15.6104 75.5952C14.8313 76.0801 14.2901 76.7727 13.9866 77.6729C13.7231 78.4547 13.7046 79.2531 13.9311 80.0682C14.1524 80.8727 14.6374 81.6253 15.386 82.3262C16.1347 83.0271 17.1605 83.5971 18.4635 84.0363C19.648 84.4356 20.7555 84.633 21.7859 84.6286C22.8189 84.6163 23.7078 84.3795 24.4525 83.9182C25.1999 83.449 25.7386 82.7248 26.0687 81.7456C26.4653 80.569 26.4635 79.5307 26.0634 78.6307C25.6659 77.7229 24.9538 77.0959 23.9273 76.7499L24.606 74.7362C25.6721 75.0956 26.5056 75.6491 27.1066 76.3969C27.6996 77.1421 28.0524 78.0261 28.1649 79.0489C28.28 80.0639 28.142 81.1518 27.7507 82.3126Z" fill="white"/>
<path d="M21.2531 58.0377L22.5398 55.6639L26.8398 69.3977L24.4221 68.0872L21.2531 58.0377ZM24.9331 65.1509L36.545 62.7719L35.3299 65.0137L25.3869 66.9893L24.9331 65.1509ZM16.9524 65.972L17.8935 64.2357L31.6963 71.7173L30.7551 73.4536L16.9524 65.972Z" fill="white"/>
<path d="M26.7088 49.7802L37.9089 58.1802L42.1089 52.5801L43.4689 53.6001L38.0989 60.7602L25.5389 51.3402L26.7088 49.7802Z" fill="white"/>
<path d="M48.8518 48.4772C47.9583 49.3514 46.918 49.9146 45.7308 50.1668C44.5435 50.4191 43.3158 50.332 42.0476 49.9057C40.7794 49.4794 39.5741 48.6825 38.4318 47.515C37.4819 46.5441 36.7855 45.5524 36.3428 44.5399C35.9001 43.5274 35.6782 42.532 35.6771 41.5538C35.6759 40.5755 35.8687 39.6525 36.2553 38.7845C36.642 37.9048 37.1898 37.1182 37.8986 36.4246C38.7742 35.5679 39.7203 34.9978 40.737 34.7142C41.7479 34.4247 42.8703 34.4399 44.1043 34.7598L43.2366 36.5182C42.3538 36.4143 41.5694 36.4706 40.8835 36.687C40.1977 36.8917 39.5986 37.2446 39.0864 37.7458C38.4133 38.4044 37.9774 39.1981 37.7787 40.127C37.58 41.0559 37.6489 42.0379 37.9853 43.0728C38.3276 44.1019 38.9709 45.0989 39.915 46.0639C40.7542 46.9216 41.6402 47.547 42.5729 47.9402C43.4997 48.3275 44.4058 48.4611 45.291 48.3411C46.1764 48.2094 46.9735 47.7967 47.6823 47.1032C48.2243 46.5728 48.5874 45.9728 48.7715 45.303C48.9615 44.6274 48.9369 43.917 48.6975 43.1719C48.4523 42.4208 47.9538 41.6611 47.202 40.8927L47.6308 40.4731C48.5633 41.4261 49.2602 42.3648 49.7216 43.2891C50.1829 44.2134 50.3529 45.114 50.2313 45.9907C50.1158 46.8616 49.6559 47.6904 48.8518 48.4772ZM51.8406 45.1331L49.0028 42.7332L47.167 40.857L44.2562 43.5301L43.3296 42.583L47.511 38.4918L52.9485 44.0491L51.8406 45.1331Z" fill="white"/>
<path d="M55.8102 41.6722L46.9025 28.7437L51.411 25.6374C52.8864 24.6209 54.245 24.206 55.4868 24.3927C56.7308 24.5678 57.7476 25.2284 58.5372 26.3744C59.3173 27.5067 59.57 28.6886 59.2953 29.9202C59.0227 31.1403 58.1487 32.2585 56.6733 33.2751L53.7706 35.275L57.4159 40.5658L55.8102 41.6722ZM63.0567 36.6793L55.3086 33.3653L57.0585 32.1596L65.1359 35.2467L63.0567 36.6793ZM52.9905 34.1428L55.7697 32.2279C56.7373 31.5612 57.3084 30.8186 57.4831 30C57.6599 29.1697 57.486 28.3738 56.9611 27.6121C56.4221 26.8298 55.7507 26.3766 54.9467 26.2525C54.1495 26.1237 53.2878 26.3784 52.3614 27.0167L49.4586 29.0167L52.9905 34.1428Z" fill="white"/>
<path d="M72.7848 31.7177C71.832 32.1589 70.8798 32.3932 69.9282 32.4206C68.9732 32.4405 68.0978 32.226 67.3022 31.7771C66.5066 31.3282 65.8718 30.612 65.3979 29.6284L67.122 28.8299C67.4302 29.4954 67.8467 29.9683 68.3714 30.2488C68.8927 30.5217 69.4708 30.6396 70.1057 30.6027C70.7372 30.5583 71.3705 30.389 72.0057 30.0948C72.6938 29.7762 73.2404 29.3899 73.6455 28.9359C74.0506 28.482 74.307 28.0143 74.4146 27.5329C74.5263 27.0403 74.4824 26.5785 74.2828 26.1475C74.0026 25.5426 73.5915 25.1406 73.0494 24.9417C72.5037 24.7352 71.8137 24.6828 70.9792 24.7846L68.0514 25.066C66.6756 25.1888 65.5592 25.118 64.7021 24.8537C63.845 24.5894 63.1889 23.9658 62.7336 22.9827C62.2224 21.8787 62.2291 20.7827 62.7539 19.6948C63.2862 18.6034 64.335 17.6953 65.9003 16.9704C67.3522 16.298 68.6423 16.1093 69.7706 16.4041C70.8955 16.6913 71.7793 17.3703 72.422 18.441L70.6753 19.2499C70.2572 18.6445 69.7108 18.2777 69.036 18.1494C68.3653 18.0099 67.5687 18.1539 66.6462 18.5811C65.7085 19.0153 65.0751 19.5612 64.7459 20.2187C64.4168 20.8762 64.3993 21.5226 64.6934 22.1578C64.9351 22.6796 65.2902 23.0202 65.759 23.1796C66.2318 23.328 66.8758 23.3604 67.6911 23.2767L71.113 22.9318C72.2914 22.7993 73.3174 22.9028 74.1909 23.2422C75.0719 23.578 75.7383 24.2337 76.19 25.2092C76.5402 25.9654 76.653 26.7443 76.5283 27.5459C76.4111 28.344 76.0434 29.1066 75.4251 29.8338C74.8067 30.5609 73.9266 31.1889 72.7848 31.7177Z" fill="white"/>
<path d="M84.6026 19.9517C84.4356 19.2634 84.5341 18.6092 84.8982 17.9892C85.2704 17.3672 85.8249 16.9668 86.5619 16.788C87.2988 16.6092 87.9874 16.7079 88.6275 17.0843C89.2676 17.4606 89.6712 17.993 89.8382 18.6813C90.0072 19.3778 89.8905 20.0278 89.4882 20.6313C89.0839 21.2268 88.5132 21.614 87.7763 21.7928C87.0393 21.9716 86.3659 21.882 85.7559 21.5241C85.1521 21.1561 84.7677 20.632 84.6026 19.9517Z" fill="#34C636"/>
<path d="M100.177 23.5511L99.5109 7.86528L105.381 7.61596C106.53 7.56716 107.491 7.71816 108.265 8.06896C109.038 8.41144 109.626 8.88694 110.027 9.49547C110.428 10.0957 110.644 10.7621 110.675 11.4948C110.713 12.394 110.497 13.1872 110.025 13.8745C109.562 14.5531 108.84 15.0342 107.86 15.3177C108.505 15.3904 109.077 15.5955 109.575 15.933C110.081 16.2618 110.482 16.6785 110.779 17.183C111.075 17.6792 111.236 18.2187 111.261 18.8015C111.283 19.3344 111.214 19.8586 111.052 20.3743C110.899 20.8896 110.623 21.36 110.224 21.7857C109.825 22.2113 109.285 22.5596 108.604 22.8304C107.923 23.1012 107.071 23.2583 106.047 23.3018L100.177 23.5511ZM102.053 21.7699L105.95 21.6044C107.14 21.5538 107.983 21.2678 108.478 20.7463C108.981 20.2245 109.216 19.5723 109.183 18.7896C109.15 17.9987 108.84 17.378 108.253 16.9274C107.667 16.4686 106.824 16.2625 105.725 16.3092L101.828 16.4747L102.053 21.7699ZM101.53 9.45602L101.757 14.8012L105.604 14.6378C106.578 14.5964 107.342 14.3263 107.896 13.8273C108.459 13.3196 108.721 12.6287 108.684 11.7545C108.65 10.9386 108.339 10.3137 107.754 9.87978C107.177 9.44556 106.392 9.24949 105.402 9.29157L101.53 9.45602Z" fill="white"/>
<path d="M113.413 23.048L120.703 8.13144L123.06 8.42358L126.364 24.6532L124.329 24.401L123.51 20.2436L117.307 19.4748L115.447 23.3002L113.413 23.048ZM117.991 18.0229L123.201 18.6687L121.552 10.6299L117.991 18.0229Z" fill="white"/>
<path d="M133.916 27.0392C132.589 26.6471 131.544 25.9777 130.782 25.0309C130.021 24.0762 129.556 22.9307 129.386 21.5944C129.218 20.2502 129.366 18.7948 129.829 17.2285C130.323 15.5582 131.018 14.2344 131.915 13.2569C132.82 12.2818 133.843 11.6455 134.982 11.3479C136.132 11.0446 137.314 11.0725 138.529 11.4315C140.135 11.9063 141.306 12.6913 142.043 13.7866C142.79 14.8763 143.157 16.1188 143.144 17.5141L141.01 17.3265C140.974 16.2993 140.694 15.4085 140.17 14.6539C139.656 13.8938 138.944 13.379 138.033 13.1098C137.242 12.876 136.443 12.8876 135.637 13.1447C134.841 13.3962 134.108 13.9093 133.436 14.6839C132.763 15.4585 132.233 16.5051 131.843 17.8237C131.489 19.0224 131.333 20.1365 131.376 21.166C131.428 22.1979 131.698 23.0772 132.187 23.804C132.684 24.5331 133.428 25.0441 134.419 25.3369C135.61 25.6889 136.647 25.6479 137.531 25.2141C138.424 24.7826 139.023 24.0474 139.33 23.0085L141.368 23.6108C141.049 24.6896 140.528 25.5435 139.803 26.1722C139.081 26.793 138.211 27.1788 137.193 27.3299C136.183 27.4833 135.091 27.3864 133.916 27.0392Z" fill="white"/>
<path d="M157.532 19.4385L159.957 20.6275L146.409 25.4831L147.62 23.0141L157.532 19.4385ZM150.575 23.4051L153.425 34.9105L151.135 33.7876L148.756 23.9333L150.575 23.4051ZM149.429 15.4644L151.203 16.3341L144.289 30.43L142.516 29.5603L149.429 15.4644Z" fill="white"/>
<path d="M166.066 24.5883L158.123 36.1168L163.887 40.0884L162.923 41.4883L155.553 36.4103L164.46 23.4819L166.066 24.5883Z" fill="white"/>
<path d="M168.295 46.696C167.386 45.8381 166.781 44.8211 166.482 43.6449C166.182 42.4687 166.22 41.2385 166.596 39.9543C166.971 38.67 167.719 37.4339 168.84 36.2459C169.772 35.2579 170.735 34.5225 171.729 34.0397C172.723 33.5568 173.709 33.2953 174.686 33.2551C175.664 33.2149 176.594 33.3706 177.476 33.7222C178.371 34.0735 179.179 34.5894 179.9 35.2699C180.791 36.1106 181.399 37.0332 181.722 38.0377C182.052 39.0362 182.082 40.1583 181.812 41.4042L180.02 40.6074C180.088 39.7211 180.001 38.9396 179.757 38.2629C179.525 37.5858 179.149 37.0014 178.627 36.5095C177.942 35.8633 177.132 35.4595 176.196 35.2981C175.26 35.1366 174.281 35.2447 173.261 35.6222C172.246 36.0054 171.276 36.6879 170.349 37.6699C169.526 38.5427 168.936 39.4529 168.58 40.4006C168.23 41.3422 168.133 42.2528 168.288 43.1326C168.455 44.012 168.9 44.792 169.621 45.4725C170.173 45.9929 170.787 46.3317 171.463 46.4889C172.146 46.6518 172.855 46.5987 173.59 46.3298C174.33 46.0548 175.07 45.5263 175.807 44.7444L176.244 45.1561C175.329 46.1259 174.419 46.8598 173.513 47.3577C172.608 47.8557 171.715 48.0614 170.834 47.975C169.96 47.8944 169.113 47.468 168.295 46.696ZM171.756 49.5487L174.04 46.6173L175.842 44.708L173.054 41.9064L173.964 40.9426L178.219 44.9572L172.883 50.6124L171.756 49.5487Z" fill="white"/>
<path d="M175.389 53.411L187.949 43.991L191.234 48.3711C192.309 49.8044 192.779 51.1452 192.642 52.3936C192.517 53.6436 191.898 54.6861 190.784 55.5211C189.684 56.3461 188.513 56.646 187.272 56.421C186.042 56.1977 184.889 55.3694 183.814 53.936L181.699 51.116L176.559 54.971L175.389 53.411ZM180.669 60.451L183.669 52.576L184.944 54.276L182.184 62.471L180.669 60.451ZM182.799 50.291L184.824 52.991C185.529 53.931 186.294 54.4719 187.119 54.6135C187.956 54.7569 188.744 54.551 189.484 53.996C190.244 53.4261 190.67 52.7369 190.762 51.9286C190.859 51.1269 190.569 50.2761 189.894 49.3761L187.779 46.556L182.799 50.291Z" fill="white"/>
<path d="M185.993 69.9492C185.513 69.0152 185.24 68.0734 185.174 67.1237C185.115 66.1702 185.294 65.2869 185.71 64.4736C186.126 63.6603 186.816 62.9969 187.779 62.4832L188.647 64.1733C187.995 64.5084 187.539 64.9438 187.281 65.4796C187.029 66.0115 186.935 66.594 186.998 67.2269C187.068 67.856 187.263 68.4819 187.583 69.1045C187.929 69.7791 188.338 70.3095 188.808 70.6957C189.278 71.0819 189.755 71.319 190.241 71.4069C190.738 71.4984 191.197 71.4356 191.62 71.2186C192.213 70.914 192.598 70.4868 192.774 69.937C192.958 69.3834 192.982 68.6918 192.847 67.8621L192.446 64.9482C192.267 63.5786 192.292 62.4603 192.521 61.5931C192.75 60.726 193.347 60.0449 194.31 59.5499C195.393 58.994 196.488 58.956 197.596 59.4359C198.709 59.9233 199.659 60.9341 200.447 62.4685C201.178 63.8918 201.419 65.1731 201.171 66.3125C200.93 67.4482 200.287 68.3589 199.244 69.0449L198.364 67.3325C198.952 66.8901 199.296 66.3292 199.397 65.6498C199.509 64.974 199.333 64.1839 198.868 63.2796C198.396 62.3604 197.825 61.7498 197.154 61.4477C196.484 61.1457 195.837 61.1546 195.215 61.4744C194.703 61.7371 194.377 62.1059 194.237 62.5808C194.108 63.0592 194.102 63.7041 194.219 64.5153L194.703 67.9202C194.884 69.0923 194.822 70.1216 194.519 71.0082C194.219 71.9022 193.591 72.5948 192.635 73.086C191.894 73.4667 191.12 73.6112 190.314 73.5193C189.512 73.4348 188.735 73.0985 187.983 72.5104C187.231 71.9222 186.568 71.0685 185.993 69.9492Z" fill="white"/>
<path d="M201.317 86.2499C201.998 86.0543 202.656 86.1254 203.29 86.4633C203.927 86.8092 204.35 87.3465 204.56 88.0754C204.769 88.8042 204.699 89.4963 204.35 90.1515C204.001 90.8068 203.486 91.2323 202.805 91.4279C202.116 91.6258 201.462 91.5363 200.842 91.1595C200.23 90.7804 199.82 90.2264 199.61 89.4976C199.401 88.7688 199.462 88.0922 199.794 87.4678C200.137 86.8492 200.644 86.4432 201.317 86.2499Z" fill="#34C636"/>
</svg>
